<?xml version="1.0" standalone="no"?>
<!DOCTYPE svg PUBLIC "-//W3C//DTD SVG 20010904//EN"
 "http://www.w3.org/TR/2001/REC-SVG-20010904/DTD/svg10.dtd">
<svg version="1.0" xmlns="http://www.w3.org/2000/svg"
 width="225.000000pt" height="225.000000pt" viewBox="0 0 225.000000 225.000000"
 preserveAspectRatio="xMidYMid meet">

<g transform="translate(0.000000,225.000000) scale(0.100000,-0.100000)"
fill="#000000" stroke="none">
<path d="M1045 2069 c-151 -12 -275 -48 -418 -121 l-78 -41 -77 36 c-77 36
-135 52 -225 60 -58 6 -70 -4 -116 -98 -60 -125 -76 -268 -45 -405 l15 -69
-35 -95 c-49 -130 -60 -185 -60 -301 0 -117 19 -199 69 -300 136 -280 449
-482 845 -546 96 -15 314 -15 410 0 396 64 709 266 845 546 50 101 69 183 69
300 0 116 -11 171 -60 301 l-35 95 15 69 c31 137 15 280 -45 405 -46 94 -58
104 -116 98 -90 -8 -148 -24 -225 -60 l-77 -36 -70 37 c-188 99 -384 140 -586
125z m327 -83 c117 -30 237 -84 344 -156 94 -64 241 -209 304 -300 l44 -65
-59 54 c-176 160 -417 259 -707 290 -407 45 -806 -65 -1053 -290 l-59 -54 44
65 c63 91 210 236 304 300 139 93 293 155 452 180 97 15 276 4 386 -24z
m-1041 -50 c37 -8 88 -25 114 -38 l47 -24 -39 -29 c-21 -15 -57 -46 -80 -68
l-41 -40 -51 101 c-28 56 -51 104 -51 107 0 8 31 5 101 -9z m1689 9 c0 -3 -23
-51 -51 -107 l-51 -101 -41 40 c-23 22 -59 53 -80 68 l-39 29 48 24 c62 31
214 65 214 47z m-1070 -560 c97 -97 162 -155 175 -155 12 0 79 59 176 156
l156 156 76 -16 c440 -91 655 -362 560 -706 -72 -264 -326 -473 -681 -563 -75
-18 -114 -21 -287 -21 -173 0 -212 3 -287 21 -404 102 -663 348 -703 668 -14
110 32 260 106 352 95 117 265 203 504 256 11 3 27 5 35 6 8 0 85 -69 170
-154z"/>
<path d="M655 1117 c-29 -9 -40 -18 -40 -32 0 -16 6 -19 30 -17 17 2 65 4 107
5 87 2 114 -11 157 -76 45 -68 80 -35 38 35 -36 61 -92 90 -181 94 -39 2 -89
-2 -111 -9z"/>
<path d="M1418 1120 c-50 -15 -93 -48 -117 -90 -39 -70 -4 -99 40 -33 43 65
70 78 157 76 42 -1 91 -3 107 -5 24 -2 30 1 30 17 0 14 -11 23 -40 31 -46 14
-137 16 -177 4z"/>
<path d="M770 821 c-17 -5 -26 -15 -28 -33 -4 -35 33 -63 122 -91 63 -19 92
-22 261 -22 169 0 198 3 261 22 89 28 126 56 122 92 -3 22 -9 27 -51 35 -54
11 -67 2 -67 -46 0 -30 -5 -33 -100 -48 -115 -18 -327 -10 -412 16 -11 3 -18
15 -18 29 0 54 -22 65 -90 46z"/>
</g>
</svg>
