<?xml version="1.0" encoding="UTF-8"?>
<svg version="1.1" xmlns="http://www.w3.org/2000/svg" width="225" height="225">
<path d="M0 0 C74.25 0 148.5 0 225 0 C225 74.25 225 148.5 225 225 C150.75 225 76.5 225 0 225 C0 150.75 0 76.5 0 0 Z " fill="#7E7E7E" transform="translate(0,0)"/>
<path d="M0 0 C74.25 0 148.5 0 225 0 C225 11.88 225 23.76 225 36 C192.33 36 159.66 36 126 36 C126 35.34 126 34.68 126 34 C84.42 34 42.84 34 0 34 C0 22.78 0 11.56 0 0 Z " fill="#686868" transform="translate(0,0)"/>
<path d="M0 0 C14.19 0.33 28.38 0.66 43 1 C43 1.33 43 1.66 43 2 C73.36 2.33 103.72 2.66 135 3 C135 6.63 135 10.26 135 14 C102.33 14 69.66 14 36 14 C36 13.34 36 12.68 36 12 C-5.58 12 -47.16 12 -90 12 C-90 9.03 -90 6.06 -90 3 C-60.63 2.67 -31.26 2.34 -1 2 C-0.67 1.34 -0.34 0.68 0 0 Z " fill="#797979" transform="translate(90,22)"/>
<path d="M0 0 C74.25 0 148.5 0 225 0 C225 2.97 225 5.94 225 9 C196.95 9.33 168.9 9.66 140 10 C140 10.33 140 10.66 140 11 C124.16 11 108.32 11 92 11 C90 5 90 5 90 4 C87.36 3.67 84.72 3.34 82 3 C82 3.66 82 4.32 82 5 C54.94 5 27.88 5 0 5 C0 3.35 0 1.7 0 0 Z " fill="#8D8D8D" transform="translate(0,0)"/>
<path d="M0 0 C41.58 0 83.16 0 126 0 C126 0.66 126 1.32 126 2 C158.67 2 191.34 2 225 2 C225 2.99 225 3.98 225 5 C191.34 5 157.68 5 123 5 C123 4.67 123 4.34 123 4 C82.41 3.67 41.82 3.34 0 3 C0 2.01 0 1.02 0 0 Z " fill="#979797" transform="translate(0,34)"/>
<path d="M0 0 C44.55 0 89.1 0 135 0 C135 1.65 135 3.3 135 5 C106.95 5.33 78.9 5.66 50 6 C50 6.33 50 6.66 50 7 C34.16 7 18.32 7 2 7 C0 1 0 1 0 0 Z " fill="#DEDEDE" transform="translate(90,4)"/>
<path d="M0 0 C13.53 0 27.06 0 41 0 C41 0.66 41 1.32 41 2 C70.04 2 99.08 2 129 2 C129 3.65 129 5.3 129 7 C112.86697108 7.07001349 96.73399127 7.12295047 80.60084724 7.15543652 C73.11031142 7.17091981 65.61986986 7.19203708 58.12939453 7.22631836 C51.60235021 7.25617617 45.07537414 7.27556436 38.54826343 7.28226548 C35.09067455 7.28618394 31.63328097 7.29542275 28.17575455 7.31719017 C24.32041961 7.34126623 20.46527751 7.34197233 16.60986328 7.34057617 C15.45756226 7.351362 14.30526123 7.36214783 13.11804199 7.3732605 C12.07193756 7.36913651 11.02583313 7.36501251 9.94802856 7.36076355 C9.03545351 7.36352893 8.12287846 7.36629431 7.18264961 7.36914349 C6.10223805 7.18641746 6.10223805 7.18641746 5 7 C4.34 6.01 3.68 5.02 3 4 C17.85 3.505 17.85 3.505 33 3 C33 2.67 33 2.34 33 2 C22.11 1.67 11.22 1.34 0 1 C0 0.67 0 0.34 0 0 Z " fill="#9C9C9C" transform="translate(96,18)"/>
<path d="M0 0 C5.42570345 0.06183817 10.85143316 0.12128407 16.27716064 0.18096924 C26.81299395 0.29720121 37.3487971 0.41594876 47.88458252 0.53643799 C47.88458252 1.19643799 47.88458252 1.85643799 47.88458252 2.53643799 C-26.36541748 2.53643799 -100.61541748 2.53643799 -177.11541748 2.53643799 C-177.11541748 1.87643799 -177.11541748 1.21643799 -177.11541748 0.53643799 C-165.49838316 0.40358339 -153.88132476 0.2730792 -142.26423359 0.14528656 C-136.86541292 0.08582968 -131.46660233 0.02566971 -126.06781006 -0.03631592 C-84.03256365 -0.51780686 -42.03512236 -0.48262157 0 0 Z " fill="#7F7F7F" transform="translate(177.11541748046875,14.46356201171875)"/>
<path d="M0 0 C74.25 0 148.5 0 225 0 C225 0.99 225 1.98 225 3 C192.33 3 159.66 3 126 3 C126 2.34 126 1.68 126 1 C84.42 1 42.84 1 0 1 C0 0.67 0 0.34 0 0 Z " fill="#3A3A3A" transform="translate(0,33)"/>
<path d="M0 0 C34.32 0 68.64 0 104 0 C104 0.33 104 0.66 104 1 C107.63 1.33 111.26 1.66 115 2 C115 1.34 115 0.68 115 0 C119.95 0 124.9 0 130 0 C129.34 0.99 128.68 1.98 128 3 C125.75488091 3.36914349 125.75488091 3.36914349 122.90011597 3.36076355 C121.82035492 3.36488754 120.74059387 3.36901154 119.62811279 3.3732605 C118.43840881 3.36247467 117.24870483 3.35168884 116.02294922 3.34057617 C114.14982559 3.34123329 114.14982559 3.34123329 112.23886108 3.34190369 C108.80912575 3.34016847 105.37992836 3.32509618 101.9502883 3.30418181 C98.36817087 3.28546141 94.78604673 3.28366825 91.20388794 3.28010559 C84.41818579 3.27077144 77.63262818 3.24613925 70.84698975 3.21605712 C63.12280602 3.18255561 55.39861547 3.16603782 47.6743772 3.15097082 C31.78283435 3.11959079 15.89143579 3.06680383 0 3 C0 2.01 0 1.02 0 0 Z " fill="#454545" transform="translate(0,29)"/>
<path d="M0 0 C27.72 0 55.44 0 84 0 C84 0.99 84 1.98 84 3 C55.62 3 27.24 3 -2 3 C-1.34 2.67 -0.68 2.34 0 2 C0 1.34 0 0.68 0 0 Z " fill="#525252" transform="translate(141,5)"/>
<path d="M0 0 C14.19 0.33 28.38 0.66 43 1 C43 1.33 43 1.66 43 2 C28.81 2.33 14.62 2.66 0 3 C0 2.01 0 1.02 0 0 Z " fill="#0E0E0E" transform="translate(90,22)"/>
<path d="M0 0 C2.64 0 5.28 0 8 0 C8 1.66666667 8 3.33333333 8 5 C4.625 5.125 4.625 5.125 1 5 C0.34 4.34 -0.32 3.68 -1 3 C-0.34 3 0.32 3 1 3 C0.67 2.01 0.34 1.02 0 0 Z " fill="#222222" transform="translate(82,4)"/>
<path d="M0 0 C2.64 0 5.28 0 8 0 C8 0.99 8 1.98 8 3 C5.36 3 2.72 3 0 3 C0 2.01 0 1.02 0 0 Z M-2 3 C0 4 0 4 0 4 Z " fill="#1B1B1B" transform="translate(88,18)"/>
<path d="M0 0 C2.31 0 4.62 0 7 0 C7.33 0.99 7.66 1.98 8 3 C5.69 3 3.38 3 1 3 C0.67 2.01 0.34 1.02 0 0 Z M-1 3 C1 4 1 4 1 4 Z " fill="#1E1E1E" transform="translate(81,0)"/>
</svg>
