<?xml version="1.0" encoding="UTF-8"?>
<!-- Generator: visioncortex VTracer 0.6.3 -->
<svg version="1.1" xmlns="http://www.w3.org/2000/svg" width="225" height="225">
<path d="M0 0 C74.25 0 148.5 0 225 0 C225 74.25 225 148.5 225 225 C150.75 225 76.5 225 0 225 C0 150.75 0 76.5 0 0 Z " fill="#FDFDFD" transform="translate(0,0)"/>
<path d="M0 0 C7.31 4.48 12.4 10.77 15.59 18.75 C15.77 21.62 15.77 21.62 15.59 23.75 C13.61 23.75 11.63 23.75 9.59 23.75 C9.25 22.95 8.91 22.15 8.55 21.33 C4.8 13.12 1.26 8.01 -7.23 4.62 C-14.11 2.73 -22.43 2.33 -28.98 5.5 C-30.14 6.21 -31.29 6.96 -32.41 7.75 C-33.3 8.3 -34.19 8.86 -35.1 9.43 C-40.6 14.93 -43.49 21.72 -43.73 29.43 C-43.6 37.72 -39.99 44.06 -34.39 50.02 C-28.75 54.96 -22.65 56.46 -15.25 56.12 C-6.59 54.98 -0.55 52.1 4.99 45.27 C7.53 41.25 8.54 37.37 9.59 32.75 C4.31 32.75 -0.97 32.75 -6.41 32.75 C-6.74 34.07 -7.07 35.39 -7.41 36.75 C-10.29 39.98 -12.63 41.06 -16.85 41.31 C-20.26 41.16 -22.29 40.54 -24.98 38.43 C-27.41 35.75 -27.41 35.75 -27.41 32.75 C-31.7 32.75 -35.99 32.75 -40.41 32.75 C-40.91 24.8 -40.74 19.84 -35.41 13.75 C-31.05 9.28 -26.97 6.12 -20.58 5.45 C-12.04 5.41 -5.96 6.07 0.4 12.06 C4.74 16.77 6.59 20.22 6.59 26.75 C9.89 26.75 13.19 26.75 16.59 26.75 C17.1 35.96 15.18 43.73 9.24 50.93 C2.6 58.22 -4.1 61.96 -14.04 63.2 C-24.89 63.69 -33.26 60.82 -41.35 53.5 C-48.42 45.72 -50.76 36.84 -50.62 26.58 C-49.98 17.91 -45.83 10.02 -39.6 3.99 C-27.66 -5.61 -13.61 -7.07 0 0 Z " fill="#2F2F2F" transform="translate(129.4140625,70.25390625)"/>
<path d="M0 0 C6.59 3.92 10.79 8.91 13.73 16.03 C13.73 17.02 13.73 18.01 13.73 19.03 C15.71 19.03 17.69 19.03 19.73 19.03 C20.06 17.71 20.39 16.39 20.73 15.03 C22.07 17.7 21.41 19.2 20.73 22.03 C17.43 22.03 14.13 22.03 10.73 22.03 C10.38 20.71 10.03 19.39 9.67 18.03 C7.65 12.03 4.3 7.32 -1.08 3.87 C-7.34 1.07 -15.04 0.85 -21.6 2.69 C-27.86 5.47 -32.68 10.7 -35.27 17.03 C-35.72 19.85 -35.72 19.85 -35.89 22.78 C-35.97 23.77 -36.04 24.75 -36.12 25.77 C-36.17 26.51 -36.22 27.26 -36.27 28.03 C-35.36 27.97 -34.46 27.92 -33.53 27.86 C-32.35 27.81 -31.17 27.77 -29.95 27.72 C-28.78 27.66 -27.61 27.6 -26.4 27.54 C-25.37 27.7 -24.33 27.87 -23.27 28.03 C-21.54 30.43 -21.54 30.43 -20.27 33.03 C-16.24 35.71 -12.99 35.72 -8.27 35.03 C-4.77 32.92 -3.56 31.91 -2.27 28.03 C3.01 28.03 8.29 28.03 13.73 28.03 C13.43 36.6 9.85 40.91 3.92 46.84 C-3.13 51.68 -10.79 53.26 -19.27 52.03 C-27.8 49.42 -34 43.69 -38.43 36.02 C-41.46 29.04 -41.18 21.84 -38.58 14.78 C-35.21 7.28 -30.54 2.85 -23.27 -0.97 C-16.23 -3.32 -6.81 -3.14 0 0 Z " fill="#EDECEC" transform="translate(125.265625,74.96875)"/>
<path d="M0 0 C5.46 3.34 9.59 8.1 11.81 14.11 C11.81 15.76 11.81 17.41 11.81 19.11 C7.85 19.11 3.89 19.11 -0.19 19.11 C-0.68 17.62 -0.68 17.62 -1.19 16.11 C-3.78 17.25 -3.78 17.25 -6.19 19.11 C-6.35 21.61 -6.35 21.61 -6.19 24.11 C-7.38 25.92 -7.38 25.92 -9.19 27.11 C-11.98 27.53 -13.5 27.52 -15.94 26.05 C-17.77 23.21 -17.88 20.42 -18.19 17.11 C-19.51 16.78 -20.83 16.45 -22.19 16.11 C-22.52 17.1 -22.85 18.09 -23.19 19.11 C-27.15 19.11 -31.11 19.11 -35.19 19.11 C-34.53 10.92 -31.07 6.59 -25.07 1.41 C-17.96 -3.5 -7.79 -3.44 0 0 Z " fill="#DD312A" transform="translate(124.1875,77.890625)"/>
<path d="M0 0 C2.88 1.31 2.88 1.31 5 3 C5.33 3.99 5.66 4.98 6 6 C5.36 6.56 4.72 7.11 4.06 7.69 C1.77 10.26 1.52 11.68 1 15 C-1 17 -1 17 -3.44 17.31 C-6 17 -6 17 -7.75 15.94 C-9 14 -9 14 -9.5 10.44 C-9.67 9.3 -9.83 8.17 -10 7 C-10.99 6.34 -11.98 5.68 -13 5 C-8.58 0.43 -6.49 -0.44 0 0 Z " fill="#352D2C" transform="translate(116,88)"/>
<path d="M0 0 C2.44 0.81 2.44 0.81 4.44 3.81 C4.11 7.13 3.83 8.42 1.44 10.81 C-1.4 11.18 -2.97 11.17 -5.44 9.69 C-6.56 7.81 -6.56 7.81 -6.44 4.75 C-5.31 0.97 -4.04 -0.3 0 0 Z " fill="#F0F0F0" transform="translate(113.5625,94.1875)"/>
<path d="M0 0 C1.32 0.66 2.64 1.32 4 2 C4 2.99 4 3.98 4 5 C3.01 5 2.02 5 1 5 C0.34 4.01 -0.32 3.02 -1 2 C-0.67 1.34 -0.34 0.68 0 0 Z " fill="#E6DDDB" transform="translate(129,79)"/>
</svg>
