<?xml version="1.0" encoding="UTF-8"?>
<svg version="1.1" xmlns="http://www.w3.org/2000/svg" width="400" height="300">
<path d="M0 0 C132 0 264 0 400 0 C400 99 400 198 400 300 C268 300 136 300 0 300 C0 201 0 102 0 0 Z " fill="#B08F81" transform="translate(0,0)"/>
<path d="M0 0 C0.7130127 0.21430664 1.42602539 0.42861328 2.16064453 0.64941406 C26.14058413 8.0056179 46.0109788 22.04772723 62.265625 41.08984375 C64.10496015 43.224557 64.10496015 43.224557 67.125 45.4375 C74.8357301 52.31010727 77.88629053 61.5490586 79 71.5625 C79.56651791 76.5575857 80.23952047 81.48629757 81.125 86.4375 C83.72608004 103.20926408 82.30894911 118.44754854 73 133 C72.59394531 133.64710938 72.18789063 134.29421875 71.76953125 134.9609375 C65.6525923 143.27997447 55.04766319 147.70996679 45.3125 150 C40.89285134 150.90816632 40.89285134 150.90816632 37.73828125 153.76953125 C37.09579957 155.80621113 37.09579957 155.80621113 36.68359375 157.90625 C34.99919574 163.06532048 29.16084727 166.56832823 24.5 168.9375 C23.675 169.288125 22.85 169.63875 22 170 C22.34933594 170.64066406 22.69867188 171.28132812 23.05859375 171.94140625 C25.74576954 177.04932398 27.6232456 181.22309915 28 187 C28.721875 187.04125 29.44375 187.0825 30.1875 187.125 C33.345406 188.10745965 35.05211522 189.42926828 37.046875 192.07421875 C39.71950666 197.47424911 38.40460845 203.57881606 36.5625 209.0625 C33.50539217 215.96003155 28.1519891 220.78690127 22.0625 225.0625 C16.80281002 226.67260918 11.71542673 227.41495255 6.68359375 224.79296875 C3.1555345 222.22651681 0.53015061 219.55923327 -2 216 C-6.79070545 217.37221211 -11.54282009 218.82797201 -16.25 220.46484375 C-24.78425888 223.42139392 -32.97272727 225.97336898 -42 227 C-41.9175 228.216875 -41.835 229.43375 -41.75 230.6875 C-41.76677531 233.84685015 -41.99831492 234.99689945 -43.5625 237.875 C-48.28354008 241.99077853 -54.15949052 242.58079411 -60.24609375 242.44140625 C-68.02570242 241.19446188 -75.26398123 236.95534001 -80.01953125 230.6796875 C-81.29429326 228.49583226 -81.84730441 226.51947721 -82 224 C-82.85207031 223.89816406 -83.70414062 223.79632813 -84.58203125 223.69140625 C-99.34475287 220.70511856 -112.50965612 209.13831892 -123 199 C-123.66515625 198.360625 -124.3303125 197.72125 -125.015625 197.0625 C-147.31077675 173.86104127 -154.77665599 140.98050902 -154.3125 109.8203125 C-153.24270522 77.8423634 -137.78500698 48.9226126 -115 27 C-84.65734745 -0.62271159 -39.53093562 -12.24797204 0 0 Z " fill="#322E29" transform="translate(235,31)"/>
<path d="M0 0 C5.14405568 3.78671662 8.93057077 8.08596897 12.44921875 13.3984375 C11.97355469 14.28789063 11.97355469 14.28789063 11.48828125 15.1953125 C10.21584056 17.89326945 9.85043501 20.45618491 9.44921875 23.3984375 C10.53203125 22.5940625 10.53203125 22.5940625 11.63671875 21.7734375 C14.44921875 20.3984375 14.44921875 20.3984375 16.89453125 21.046875 C22.10156059 23.80166422 25.34610076 29.14423987 27.88671875 34.3359375 C29.55956283 43.44364414 28.64197252 51.49690958 23.44921875 59.3984375 C20.87024686 61.4840048 18.23895956 63.03618997 15.34765625 64.65625 C4.99163261 70.88102971 -1.2891843 81.40652747 -7.55078125 91.3984375 C-8.01484375 91.058125 -8.47890625 90.7178125 -8.95703125 90.3671875 C-19.8045787 82.75771391 -31.82613241 77.06159398 -44.55078125 73.3984375 C-44.55078125 74.7184375 -44.55078125 76.0384375 -44.55078125 77.3984375 C-43.77347656 77.62402344 -42.99617188 77.84960938 -42.1953125 78.08203125 C-29.85141863 82.54065101 -16.73942096 88.87018644 -8.55078125 99.3984375 C-9.04578125 100.8834375 -9.04578125 100.8834375 -9.55078125 102.3984375 C-8.89078125 102.7284375 -8.23078125 103.0584375 -7.55078125 103.3984375 C-7.55078125 104.3884375 -7.55078125 105.3784375 -7.55078125 106.3984375 C-9.03578125 106.8934375 -9.03578125 106.8934375 -10.55078125 107.3984375 C-10.55078125 108.0584375 -10.55078125 108.7184375 -10.55078125 109.3984375 C-23.2460301 112.51613123 -37.87901916 111.00363483 -49.54296875 105.30078125 C-51.53216036 104.40680603 -53.42402552 103.86098303 -55.55078125 103.3984375 C-55.55078125 104.3884375 -55.55078125 105.3784375 -55.55078125 106.3984375 C-45.20083304 111.8350676 -36.30734135 115.36429564 -24.55078125 116.3984375 C-24.62039062 117.11128906 -24.69 117.82414062 -24.76171875 118.55859375 C-25.0583468 123.8060852 -25.2158485 127.4076797 -21.67578125 131.5234375 C-18.47290193 134.75726251 -16.28500251 135.59620399 -11.73828125 135.7734375 C-10.46017578 135.84691406 -10.46017578 135.84691406 -9.15625 135.921875 C-5.27824197 135.14278493 -3.97220062 133.49114144 -1.55078125 130.3984375 C-0.25527511 127.5559258 0.63551417 124.64311553 1.51171875 121.6484375 C2.01224148 120.04060946 2.51611731 118.43382119 3.0234375 116.828125 C3.38381104 115.68102051 3.38381104 115.68102051 3.75146484 114.51074219 C5.02413916 110.65798564 6.69134795 107.04939993 8.44921875 103.3984375 C9.10921875 103.3984375 9.76921875 103.3984375 10.44921875 103.3984375 C11.09965594 105.12587766 11.74436719 106.8554744 12.38671875 108.5859375 C12.74636719 109.54886719 13.10601562 110.51179688 13.4765625 111.50390625 C15.22203846 116.69827447 15.56297522 121.22649503 15.51171875 126.7109375 C15.50269531 127.96519531 15.49367188 129.21945313 15.484375 130.51171875 C15.47277344 131.46433594 15.46117187 132.41695312 15.44921875 133.3984375 C16.43921875 133.0684375 17.42921875 132.7384375 18.44921875 132.3984375 C18.77921875 130.0884375 19.10921875 127.7784375 19.44921875 125.3984375 C22.33853442 128.16213075 23.32489165 129.66628901 24.01171875 133.7109375 C23.44921875 137.3984375 23.44921875 137.3984375 21.875 138.72265625 C20.46404347 139.53160466 19.04413241 140.32506879 17.6171875 141.10546875 C11.16968327 144.95073704 8.72362871 150.40344276 6.89453125 157.45703125 C6.74757813 158.09769531 6.600625 158.73835937 6.44921875 159.3984375 C7.10921875 159.3984375 7.76921875 159.3984375 8.44921875 159.3984375 C8.67609375 158.8828125 8.90296875 158.3671875 9.13671875 157.8359375 C11.97969888 152.55611725 15.26080767 147.59130586 20.44921875 144.3984375 C22.69921875 144.6484375 22.69921875 144.6484375 24.44921875 145.3984375 C24.77921875 145.3984375 25.10921875 145.3984375 25.44921875 145.3984375 C25.44921875 144.7384375 25.44921875 144.0784375 25.44921875 143.3984375 C28.5576571 143.05305546 30.0743692 143.16542292 32.76171875 144.8359375 C35.2896714 148.67468041 35.15662772 151.9329184 34.44921875 156.3984375 C32.51331247 162.95632003 28.17651609 167.77462027 22.44921875 171.3984375 C19.40230436 172.56242727 17.84724102 172.56285793 14.44921875 172.3984375 C8.94847779 169.91771119 6.04013284 165.69490789 3.44921875 160.3984375 C3.44921875 159.7384375 3.44921875 159.0784375 3.44921875 158.3984375 C2.89878906 158.67816406 2.34835938 158.95789063 1.78125 159.24609375 C-11.01412025 165.41564437 -25.39128832 170.77357766 -39.55078125 172.3984375 C-38.82375 171.16673828 -38.82375 171.16673828 -38.08203125 169.91015625 C-36.33898613 165.91271348 -36.01415921 162.49764415 -36.05078125 158.2109375 C-36.05432617 157.46714844 -36.05787109 156.72335938 -36.06152344 155.95703125 C-36.25253867 149.55663684 -37.53056217 143.56124516 -41.55078125 138.3984375 C-43.62944339 137.559026 -43.62944339 137.559026 -45.55078125 137.3984375 C-45.27363281 137.99011719 -44.99648437 138.58179688 -44.7109375 139.19140625 C-44.16759766 140.37669922 -44.16759766 140.37669922 -43.61328125 141.5859375 C-43.25363281 142.36324219 -42.89398438 143.14054688 -42.5234375 143.94140625 C-40.05435791 150.17855912 -39.93011036 156.77794804 -40.55078125 163.3984375 C-42.93857969 168.8704756 -47.11606782 172.11401558 -52.55078125 174.3984375 C-55.88890437 175.04513942 -59.15423526 175.32187601 -62.55078125 175.3984375 C-62.22078125 176.3884375 -61.89078125 177.3784375 -61.55078125 178.3984375 C-60.47957031 178.38683594 -59.40835938 178.37523437 -58.3046875 178.36328125 C-56.90755382 178.35390451 -55.51041826 178.34480419 -54.11328125 178.3359375 C-53.40623047 178.32755859 -52.69917969 178.31917969 -51.97070312 178.31054688 C-50.16384566 178.30190162 -48.35690522 178.34623739 -46.55078125 178.3984375 C-45.55078125 179.3984375 -45.55078125 179.3984375 -45.48828125 182.4609375 C-45.50890625 183.4303125 -45.52953125 184.3996875 -45.55078125 185.3984375 C-46.21078125 185.3984375 -46.87078125 185.3984375 -47.55078125 185.3984375 C-47.88078125 184.7384375 -48.21078125 184.0784375 -48.55078125 183.3984375 C-48.88078125 184.7184375 -49.21078125 186.0384375 -49.55078125 187.3984375 C-51.53078125 187.3984375 -53.51078125 187.3984375 -55.55078125 187.3984375 C-56.21078125 185.7484375 -56.87078125 184.0984375 -57.55078125 182.3984375 C-57.55078125 183.0584375 -57.55078125 183.7184375 -57.55078125 184.3984375 C-57.55078125 185.0584375 -57.55078125 185.7184375 -57.55078125 186.3984375 C-63.70115522 186.27030471 -66.54209878 184.18431777 -71.046875 180.08984375 C-72.55078125 178.3984375 -72.55078125 178.3984375 -72.55078125 176.3984375 C-71.89078125 176.0684375 -71.23078125 175.7384375 -70.55078125 175.3984375 C-70.22078125 174.4084375 -69.89078125 173.4184375 -69.55078125 172.3984375 C-70.12828125 172.13546875 -70.70578125 171.8725 -71.30078125 171.6015625 C-73.67575219 170.33161276 -75.5178636 168.91135828 -77.55078125 167.1484375 C-78.21078125 166.58640625 -78.87078125 166.024375 -79.55078125 165.4453125 C-87.81476423 156.98764242 -89.95646693 145.37961907 -90.08203125 133.921875 C-88.61499635 124.19198178 -84.39271045 115.72991248 -79.67578125 107.2109375 C-75.95176245 100.26943438 -72.44921245 93.38915643 -69.80078125 85.9609375 C-69.56117676 85.30649658 -69.32157227 84.65205566 -69.07470703 83.9777832 C-66.45833334 76.17808477 -67.31176519 69.96560482 -69.92578125 62.4609375 C-70.38746852 61.0462409 -70.84712585 59.6308801 -71.3046875 58.21484375 C-71.5227002 57.54855957 -71.74071289 56.88227539 -71.96533203 56.19580078 C-76.21844554 43.13849401 -76.17912464 29.03723227 -70.55078125 16.3984375 C-63.84377919 4.18335343 -53.94726267 -2.87842835 -41.23828125 -7.9140625 C-26.9498878 -10.57800026 -12.30150735 -7.72376418 0 0 Z " fill="#F48A2A" transform="translate(232.55078125,79.6015625)"/>
<path d="M0 0 C-0.66 0.33 -1.32 0.66 -2 1 C-5.08363907 -0.04935777 -8.04958512 -1.32292253 -11.0546875 -2.578125 C-21.67865216 -6.58583228 -31.86122917 -7.5014188 -43.125 -7.375 C-43.85399506 -7.37067963 -44.58299011 -7.36635925 -45.33407593 -7.36190796 C-61.46490804 -7.24984685 -76.01191141 -4.77890238 -91.54418945 -0.53833008 C-92.34300537 -0.3245874 -93.14182129 -0.11084473 -93.96484375 0.109375 C-94.6724585 0.30499023 -95.38007324 0.50060547 -96.10913086 0.70214844 C-98 1 -98 1 -101 0 C-101.99 -8.91 -101.99 -8.91 -103 -18 C-108.73990645 -18.67611106 -108.73990645 -18.67611106 -111.10742188 -16.06616211 C-116.02344322 -8.86558362 -119.906058 -1.49874847 -123.5 6.4375 C-132.99203811 27.32708511 -146.3165184 41.6712257 -163 57 C-165.62857962 55.68571019 -165.70280968 54.7572559 -166.625 52 C-169.71787647 41.03291252 -169.51991849 28.17423094 -163.95336914 18.10717773 C-160.98743922 13.22346575 -157.68417122 9.1381097 -153.625 5.125 C-152.71306885 4.22273682 -152.71306885 4.22273682 -151.78271484 3.30224609 C-110.2528493 -36.61191954 -43.45128146 -36.62154074 0 0 Z " fill="#4CB84E" transform="translate(276,61)"/>
<path d="M0 0 C0.33 0 0.66 0 1 0 C1.99 4.95 2.98 9.9 4 15 C6.31 15.66 8.62 16.32 11 17 C10.27554688 17.57621094 9.55109375 18.15242188 8.8046875 18.74609375 C-3.40445493 28.55761907 -13.60448723 39.91584283 -16 56 C-17.22570775 69.66572671 -14.50393593 83.885617 -9.5625 96.625 C-7.42286035 102.64800136 -8.56590023 106.26309349 -11 112 C-11.33386719 112.97324219 -11.66773438 113.94648438 -12.01171875 114.94921875 C-14.54044812 122.16275201 -17.90610463 128.53032863 -21.75219727 135.09228516 C-25.04335557 140.81125582 -27.27279766 146.62263751 -29 153 C-35.11922944 151.21812211 -38.51715404 148.38362804 -43 144 C-43.52722656 143.49726563 -44.05445312 142.99453125 -44.59765625 142.4765625 C-49.64001443 137.17872484 -56 127.5192935 -56 120 C-54.98679687 119.5978125 -54.98679687 119.5978125 -53.953125 119.1875 C-48.4656059 116.77679797 -44.96024649 114.91535115 -42.6640625 109.25 C-41.69153966 105.95486379 -41.0171459 102.64253052 -40.4375 99.2578125 C-39.93822446 96.6811941 -38.97204093 94.43010233 -38 92 C-37.83201738 89.29113059 -37.83201738 89.29113059 -38 87 C-39.32 86.67 -40.64 86.34 -42 86 C-41.98839844 84.83082031 -41.97679688 83.66164063 -41.96484375 82.45703125 C-41.95546087 80.90885577 -41.9463612 79.36067855 -41.9375 77.8125 C-41.92912109 77.04357422 -41.92074219 76.27464844 -41.91210938 75.48242188 C-41.88808251 70.81463088 -41.88808251 70.81463088 -42.7734375 66.25 C-43 64 -43 64 -41.19921875 61.54296875 C-39.95591797 60.37701172 -39.95591797 60.37701172 -38.6875 59.1875 C-37.86636719 58.39730469 -37.04523438 57.60710937 -36.19921875 56.79296875 C-34 55 -34 55 -32 55 C-31.731875 54.40574219 -31.46375 53.81148437 -31.1875 53.19921875 C-29.98938589 50.98034295 -28.76371668 49.5974152 -27 47.8125 C-16.23401035 35.66739597 -9.79067328 19.75674937 -3.078125 5.18212891 C-2 3 -2 3 0 0 Z " fill="#11793D" transform="translate(167,52)"/>
<path d="M0 0 C4.78195341 3.52016066 10.26406485 7.71703736 12.44921875 13.3984375 C12.04615914 16.71592818 10.97033169 19.43843395 9.44921875 22.3984375 C8.95421875 21.4084375 8.95421875 21.4084375 8.44921875 20.3984375 C-15.51913251 20.01362452 -43.72839438 36.55898176 -61.55078125 51.3984375 C-64.97034691 54.82395023 -67.86837489 58.37482796 -70.55078125 62.3984375 C-75.15290506 45.79791949 -77.77478198 29.55510205 -69.04296875 13.65234375 C-62.02145214 2.92411954 -52.98482825 -3.25977029 -41.23828125 -7.9140625 C-26.9498878 -10.57800026 -12.30150735 -7.72376418 0 0 Z " fill="#CB5D28" transform="translate(232.55078125,79.6015625)"/>
<path d="M0 0 C0.66 0 1.32 0 2 0 C2.65043719 1.72744016 3.29514844 3.4570369 3.9375 5.1875 C4.47697266 6.63189453 4.47697266 6.63189453 5.02734375 8.10546875 C6.77281971 13.29983697 7.11375647 17.82805753 7.0625 23.3125 C7.05347656 24.56675781 7.04445312 25.82101563 7.03515625 27.11328125 C7.02355469 28.06589844 7.01195312 29.01851562 7 30 C7.99 29.67 8.98 29.34 10 29 C10.33 26.69 10.66 24.38 11 22 C13.88931567 24.76369325 14.8756729 26.26785151 15.5625 30.3125 C15 34 15 34 13.42578125 35.32421875 C12.01482472 36.13316716 10.59491366 36.92663129 9.16796875 37.70703125 C2.72046452 41.55229954 0.27440996 47.00500526 -1.5546875 54.05859375 C-1.70164063 54.69925781 -1.84859375 55.33992188 -2 56 C-1.34 56 -0.68 56 0 56 C0.226875 55.484375 0.45375 54.96875 0.6875 54.4375 C3.53048013 49.15767975 6.81158892 44.19286836 12 41 C14.25 41.25 14.25 41.25 16 42 C16.33 42 16.66 42 17 42 C17 41.34 17 40.68 17 40 C20.10843835 39.65461796 21.62515045 39.76698542 24.3125 41.4375 C26.84045265 45.27624291 26.70740897 48.5344809 26 53 C24.06409372 59.55788253 19.72729734 64.37618277 14 68 C10.95308561 69.16398977 9.39802227 69.16442043 6 69 C0.49925904 66.51927369 -2.40908591 62.29647039 -5 57 C-5 56.34 -5 55.68 -5 55 C-5.55042969 55.27972656 -6.10085937 55.55945313 -6.66796875 55.84765625 C-19.463339 62.01720687 -33.84050707 67.37514016 -48 69 C-47.27296875 67.76830078 -47.27296875 67.76830078 -46.53125 66.51171875 C-44.78787295 62.51351475 -44.46533006 59.09953465 -44.5 54.8125 C-44.50064453 54.06363525 -44.50128906 53.31477051 -44.50195312 52.54321289 C-44.6572746 46.72053635 -46.14725274 42.49354085 -48.87890625 37.33203125 C-50.56359199 33.82765012 -50.50718569 30.74537122 -50 27 C-49.85820312 25.906875 -49.71640625 24.81375 -49.5703125 23.6875 C-48.26495399 14.52990798 -48.26495399 14.52990798 -47 12 C-40.07 12.495 -40.07 12.495 -33 13 C-33.12375 14.670625 -33.2475 16.34125 -33.375 18.0625 C-33.39751984 22.42571963 -32.99139524 24.79246767 -30.125 28.125 C-26.92212068 31.35882501 -24.73422126 32.19776649 -20.1875 32.375 C-19.33542969 32.42398438 -18.48335937 32.47296875 -17.60546875 32.5234375 C-13.72746072 31.74434743 -12.42141937 30.09270394 -10 27 C-8.70449386 24.1574883 -7.81370458 21.24467803 -6.9375 18.25 C-6.43697727 16.64217196 -5.93310144 15.03538369 -5.42578125 13.4296875 C-5.18553223 12.66495117 -4.9452832 11.90021484 -4.69775391 11.11230469 C-3.42507959 7.25954814 -1.7578708 3.65096243 0 0 Z " fill="#FBC03C" transform="translate(241,183)"/>
<path d="M0 0 C5.3534957 5.12491948 6.92592027 10.26473544 7.17578125 17.6015625 C7.27819449 26.88290277 3.70914197 33.37281924 -1.51171875 40.9140625 C-7.15476986 46.55711361 -13.02041244 51.25948908 -20.26171875 54.6640625 C-20.2153125 53.55289063 -20.16890625 52.44171875 -20.12109375 51.296875 C-19.77068215 39.54552444 -20.50109162 31.57066589 -28.69921875 22.5390625 C-29.488125 21.7140625 -30.27703125 20.8890625 -31.08984375 20.0390625 C-33.51188199 17.3905027 -35.27768286 14.66660756 -37.10546875 11.59765625 C-44.70997178 -1.11933362 -56.37739113 -7.9615815 -70.63671875 -11.5859375 C-76.76087827 -12.78586524 -83.04236332 -12.99975613 -89.26171875 -13.3359375 C-69.79072098 -32.80693527 -17.81945685 -14.69853503 0 0 Z " fill="#11793C" transform="translate(287.26171875,77.3359375)"/>
<path d="M0 0 C29.87035378 -1.26328415 58.01405582 7.74279295 80.96923828 27.08984375 C80.30923828 27.41984375 79.64923828 27.74984375 78.96923828 28.08984375 C75.88559921 27.04048598 72.91965316 25.76692122 69.91455078 24.51171875 C59.29058612 20.50401147 49.10800911 19.58842495 37.84423828 19.71484375 C37.11524323 19.71916412 36.38624817 19.7234845 35.63516235 19.72793579 C19.50433024 19.8399969 4.95732688 22.31094137 -10.57495117 26.55151367 C-11.37376709 26.76525635 -12.17258301 26.97899902 -12.99560547 27.19921875 C-13.70322021 27.39483398 -14.41083496 27.59044922 -15.13989258 27.79199219 C-17.03076172 28.08984375 -17.03076172 28.08984375 -20.03076172 27.08984375 C-20.69076172 21.14984375 -21.35076172 15.20984375 -22.03076172 9.08984375 C-27.50901252 8.64263015 -27.50901252 8.64263015 -30.03076172 10.08984375 C-30.36076172 8.76984375 -30.69076172 7.44984375 -31.03076172 6.08984375 C-20.64829173 3.2010867 -10.79222532 0.4774632 0 0 Z " fill="#4CB74D" transform="translate(195.03076171875,33.91015625)"/>
<path d="M0 0 C3.67762703 1.28403766 3.86453222 1.69112598 5.484375 5.0234375 C6.20282168 6.69422815 6.90241841 8.37321287 7.5859375 10.05859375 C12.61307335 21.48428848 18.56143712 30.22270605 29.2109375 37.12109375 C30.79261719 37.6934375 30.79261719 37.6934375 32.40625 38.27734375 C35.2109375 40.12109375 35.2109375 40.12109375 36.1640625 44 C36.28996518 45.5592563 36.38761568 47.12098196 36.4609375 48.68359375 C36.58525768 50.30754641 36.71284362 51.93125248 36.84375 53.5546875 C36.90079102 54.33827637 36.95783203 55.12186523 37.01660156 55.92919922 C37.38425804 60.07595787 38.29550462 64.06703385 39.2109375 68.12109375 C35.69223882 68.4172977 33.74151965 68.44419942 30.68359375 66.58203125 C29.88824219 65.89367187 29.09289062 65.2053125 28.2734375 64.49609375 C27.40976563 63.75488281 26.54609375 63.01367188 25.65625 62.25 C24.44582031 61.19619141 24.44582031 61.19619141 23.2109375 60.12109375 C22.58960937 59.65574219 21.96828125 59.19039062 21.328125 58.7109375 C8.38915642 48.87130326 1.29951372 31.21737519 -2.7890625 16.12109375 C-2.98628906 15.45464844 -3.18351562 14.78820312 -3.38671875 14.1015625 C-3.91113729 11.52020134 -3.92109068 9.06564801 -3.9140625 6.43359375 C-3.91664062 5.46035156 -3.91921875 4.48710937 -3.921875 3.484375 C-3.72872659 0.04746948 -3.47911567 0.15105404 0 0 Z " fill="#CB5527" transform="translate(100.7890625,170.87890625)"/>
<path d="M0 0 C0.66 0 1.32 0 2 0 C4.8755914 12.45316597 3.57470207 27.11220791 -2.625 38.375 C-9.57636733 48.72556896 -18.77371897 53.99266048 -30.890625 56.62890625 C-31.58671875 56.75136719 -32.2828125 56.87382812 -33 57 C-33.10957031 56.13117188 -33.21914063 55.26234375 -33.33203125 54.3671875 C-34.16321036 48.32593449 -34.87332558 43.25849788 -38 38 C-38 37.34 -38 36.68 -38 36 C-35.9453125 34.5546875 -35.9453125 34.5546875 -33.125 32.875 C-21.21037072 25.47025597 -4.64215024 13.92645072 0 0 Z " fill="#107A3D" transform="translate(307,118)"/>
<path d="M0 0 C0.66 0.66 1.32 1.32 2 2 C1.29790529 9.58262287 -3.70330569 16.16241487 -9.25 21.0625 C-13.90581088 24.89722796 -16.98047609 25.41830478 -22.99609375 25.33203125 C-32.08963646 24.32689324 -40.25198919 17.83646391 -46 11 C-46 9.68 -46 8.36 -46 7 C-40.66712999 4.2123634 -36.74254434 2.91123712 -30.75390625 2.75390625 C-29.75166016 2.72103516 -28.74941406 2.68816406 -27.71679688 2.65429688 C-25.6179454 2.59321575 -23.51898059 2.53590939 -21.41992188 2.48242188 C-20.41638672 2.44826172 -19.41285156 2.41410156 -18.37890625 2.37890625 C-17.01100952 2.34132202 -17.01100952 2.34132202 -15.61547852 2.30297852 C-9.83779497 1.63368837 -6.05411579 -0.3969912 0 0 Z " fill="#37322C" transform="translate(252,111)"/>
<path d="M0 0 C0.05410687 1.77049689 0.09284119 3.54146849 0.125 5.3125 C0.14820312 6.29863281 0.17140625 7.28476563 0.1953125 8.30078125 C0 11 0 11 -2 14 C-2 14.99 -2 15.98 -2 17 C-0.35 17.33 1.3 17.66 3 18 C2.60188515 20.56663436 2.18238721 23.12660876 1.75 25.6875 C1.58564453 26.7693457 1.58564453 26.7693457 1.41796875 27.87304688 C0.60007007 32.5867261 -0.55308576 35.47988874 -4 39 C-8.60425362 41.97922293 -13.85394373 41.06295589 -19 40 C-22.125 38.4375 -22.125 38.4375 -24 37 C-23.48675871 31.22603548 -22.36581348 26.53076337 -20 21.25 C-19.69529785 20.56478271 -19.3905957 19.87956543 -19.07666016 19.17358398 C-16.00433141 12.55892327 -12.24734388 6.12682185 -7 1 C-4.51622265 0.23435182 -2.57815447 0 0 0 Z " fill="#F9BF3C" transform="translate(120,126)"/>
<path d="M0 0 C1.89913951 3.79827902 0.98747432 8.78655095 0.87304688 12.99609375 C0.77932637 19.64473654 2.09733934 25.07962729 4.0625 31.4375 C3.9792173 36.18461378 2.13114053 37.75539858 -0.8828125 41.265625 C-3.44857991 44.57934675 -5.37119557 48.0462842 -7.3125 51.75 C-7.64950928 52.38808594 -7.98651855 53.02617187 -8.33374023 53.68359375 C-10.08494561 57.05779204 -11.66214743 60.441448 -13 64 C-14.8309296 62.44383142 -15.88647406 61.50690651 -16.41992188 59.125 C-16.47454725 56.74770386 -16.51770368 54.37811903 -16.5 52 C-16.49427979 51.11151367 -16.48855957 50.22302734 -16.48266602 49.30761719 C-16.03094941 32.10892574 -9.86300402 14.0930889 0 0 Z " fill="#308A46" transform="translate(105,88)"/>
<path d="M0 0 C3.10843835 -0.34538204 4.62515045 -0.23301458 7.3125 1.4375 C9.84045265 5.27624291 9.70740897 8.5344809 9 13 C7.06409372 19.55788253 2.72729734 24.37618277 -3 28 C-7.05504676 29.54911899 -10.074653 29.38864574 -14.125 27.6875 C-18.07089011 23.99895055 -20.45564446 19.72780959 -23 15 C-21.19587357 11.73539027 -20.16605307 10.11070205 -17 8 C-17.66 10.64 -18.32 13.28 -19 16 C-18.34 16 -17.68 16 -17 16 C-16.773125 15.484375 -16.54625 14.96875 -16.3125 14.4375 C-13.46951987 9.15767975 -10.18841108 4.19286836 -5 1 C-2.75 1.25 -2.75 1.25 -1 2 C-0.67 2 -0.34 2 0 2 C0 1.34 0 0.68 0 0 Z " fill="#F38B2A" transform="translate(258,223)"/>
<path d="M0 0 C5.16176409 2.65063562 7.18411042 5.55233127 9 11 C10.21492816 28.90525268 10.21492816 28.90525268 5 35 C0.36265321 38.96106705 0.36265321 38.96106705 -3.1875 39.0625 C-7.58692455 36.48352699 -8.84307112 30.91651728 -10.25 26.3125 C-10.60578125 25.17425781 -10.9615625 24.03601563 -11.328125 22.86328125 C-12 20 -12 20 -11 18 C-10.34 18 -9.68 18 -9 18 C-8.34 18.99 -7.68 19.98 -7 21 C-5.70383728 14.71148966 -5.70383728 14.71148966 -8 9 C-7.34 8.67 -6.68 8.34 -6 8 C-5.8453125 6.824375 -5.8453125 6.824375 -5.6875 5.625 C-5 3 -5 3 -2.4375 1.1875 C-1.633125 0.795625 -0.82875 0.40375 0 0 Z " fill="#F0871F" transform="translate(258,155)"/>
<path d="M0 0 C19.6201759 4.25147822 38.87213817 11.07545424 53 26 C51.7625 25.5875 50.525 25.175 49.25 24.75 C48.43402344 24.47929688 47.61804688 24.20859375 46.77734375 23.9296875 C44.82891346 23.27747033 42.88385854 22.61512363 40.94140625 21.9453125 C39.90886719 21.59210937 38.87632812 21.23890625 37.8125 20.875 C36.84957031 20.54242188 35.88664062 20.20984375 34.89453125 19.8671875 C29.00548462 18.10285774 23.41062669 17.86195914 17.3203125 17.90234375 C16.50754852 17.9037587 15.69478455 17.90517365 14.85739136 17.90663147 C12.27988899 17.91219665 9.7024758 17.9247426 7.125 17.9375 C5.36979293 17.9425195 3.61458448 17.94708162 1.859375 17.95117188 C-2.42711732 17.96215466 -6.71354357 17.97939508 -11 18 C-9.03412862 15.89412591 -7.72010714 14.86303115 -5.0625 13.5625 C-1.97966907 11.98962708 -0.0971946 10.74248525 2 8 C2.55156953 4.23094157 2.16551116 3.24826674 0 0 Z " fill="#308946" transform="translate(223,36)"/>
<path d="M0 0 C1.02029297 0.00515625 2.04058594 0.0103125 3.09179688 0.015625 C7.93301779 0.06505674 12.76757601 0.22598885 17.59765625 0.5625 C18.76566772 0.64177734 18.76566772 0.64177734 19.95727539 0.72265625 C23.26114854 1.55025291 24.89818778 3.62712465 26.90625 6.265625 C30.98198859 13.26047366 30.97858492 20.32625693 30.0625 28.25 C28.11978776 33.86364168 26.08987656 38.89841563 21.0625 42.25 C21.07297363 41.6923999 21.08344727 41.1347998 21.09423828 40.56030273 C21.28314395 28.92108339 21.03922431 17.73971003 19.0625 6.25 C12.88629712 5.47874589 6.84775182 5.05742693 0.625 5.0625 C-0.20104736 5.06185547 -1.02709473 5.06121094 -1.87817383 5.06054688 C-7.79369122 5.11176852 -13.19563975 5.7439383 -18.9375 7.25 C-19.5975 5.93 -20.2575 4.61 -20.9375 3.25 C-13.87434068 0.29783317 -7.59741573 -0.15300019 0 0 Z " fill="#12582F" transform="translate(263.9375,74.75)"/>
<path d="M0 0 C0.33 0 0.66 0 1 0 C0.979375 0.6084375 0.95875 1.216875 0.9375 1.84375 C1.17623564 11.99001482 5.60154362 21.48143983 11.88671875 29.3671875 C13.8269488 31.19759321 15.73438175 32.59334658 18 34 C19.34384766 34.86044922 19.34384766 34.86044922 20.71484375 35.73828125 C28.22315861 40.03015637 34.45104302 40.74458658 43 40 C40.38313961 42.13204027 38.29382487 43.43480955 35 44.1875 C34.34 44.34605469 33.68 44.50460938 33 44.66796875 C31 45 31 45 27 45 C27.33 45.99 27.66 46.98 28 48 C29.07121094 47.98839844 30.14242187 47.97679687 31.24609375 47.96484375 C32.64322743 47.95546701 34.04036299 47.94636669 35.4375 47.9375 C36.14455078 47.92912109 36.85160156 47.92074219 37.58007812 47.91210938 C39.38693559 47.90346412 41.19387603 47.94779989 43 48 C44 49 44 49 44.0625 52.0625 C44.041875 53.031875 44.02125 54.00125 44 55 C43.34 55 42.68 55 42 55 C41.67 54.34 41.34 53.68 41 53 C40.67 54.32 40.34 55.64 40 57 C38.02 57 36.04 57 34 57 C33.34 55.35 32.68 53.7 32 52 C32 52.66 32 53.32 32 54 C32 54.66 32 55.32 32 56 C25.84962603 55.87186721 23.00868247 53.78588027 18.50390625 49.69140625 C17 48 17 48 17 46 C17.99 45.505 17.99 45.505 19 45 C19.33 44.01 19.66 43.02 20 42 C19.4225 41.73703125 18.845 41.4740625 18.25 41.203125 C15.87502906 39.93317526 14.03291765 38.51292078 12 36.75 C11.34 36.18796875 10.68 35.6259375 10 35.046875 C2.26714729 27.13278356 -0.25 16.43663405 -0.25 5.625 C-0.18732397 3.74919586 -0.11203678 1.87350399 0 0 Z " fill="#CB5F27" transform="translate(143,210)"/>
<path d="M0 0 C0.495 1.485 0.495 1.485 1 3 C0.071875 3.556875 0.071875 3.556875 -0.875 4.125 C-3.62827582 6.55436101 -3.95829871 8.48425814 -5 12 C-6.86742899 16.77842124 -9.05417735 21.17495009 -11.8125 25.5 C-17.75226067 35.1389534 -21.6045808 46.26415293 -25.078125 56.99609375 C-26 59 -26 59 -29 61 C-31.6875 60.625 -31.6875 60.625 -34 60 C-34 59.67 -34 59.34 -34 59 C-32.02 59 -30.04 59 -28 59 C-29.35468295 54.12314139 -31.71675909 52.51407619 -36 50 C-35.27734375 48.07421875 -35.27734375 48.07421875 -34 46 C-31.94140625 45.20703125 -31.94140625 45.20703125 -29.5625 44.8125 C-26.90608554 44.34423584 -24.57286691 43.8576223 -22 43 C-19.91352361 37.67948522 -19.57514295 33.49873277 -21.74609375 28.16796875 C-22.35086884 23.00411988 -17.06194067 17.91279699 -14 14 C-5.23638721 3.49092481 -5.23638721 3.49092481 0 0 Z " fill="#116E38" transform="translate(251,149)"/>
<path d="M0 0 C5.63952844 6.61186093 7.77559975 11.70491281 7.52734375 20.43359375 C5.55182039 33.79398506 -4.04377453 43.70040939 -13.6484375 52.3984375 C-14.42445313 52.92695313 -15.20046875 53.45546875 -16 54 C-16.99 53.67 -17.98 53.34 -19 53 C-19.28515625 50.7578125 -19.28515625 50.7578125 -19 48 C-17.05859375 45.9296875 -17.05859375 45.9296875 -14.4375 43.875 C-5.77735964 36.47830788 0.27616474 26.97282582 1.20703125 15.43359375 C1.29455415 10.22200308 0.7629053 5.14961078 0 0 Z " fill="#33B249" transform="translate(299,83)"/>
<path d="M0 0 C2 2 2 2 2.01953125 4.42578125 C1.95121094 5.37839844 1.88289063 6.33101562 1.8125 7.3125 C1.64881249 11.27566047 1.64881249 11.27566047 3.10546875 14.8359375 C4.60751556 16.35569128 4.60751556 16.35569128 7 18 C5.02 18.99 5.02 18.99 3 20 C4.44253657 23.36591866 6.33264727 25.51047079 9 28 C4.11577419 30.76772796 -0.69568542 30.09564531 -6 29 C-9.125 27.4375 -9.125 27.4375 -11 26 C-10.66485675 17.62141875 -7.49018971 7.84354817 -1.80078125 1.578125 C-0.90939453 0.79695312 -0.90939453 0.79695312 0 0 Z " fill="#ED6131" transform="translate(107,137)"/>
<path d="M0 0 C3.74054476 1.32524742 3.97016376 1.86102257 5.6796875 5.2578125 C6.44884314 6.98077426 7.19416169 8.71453277 7.91796875 10.45703125 C8.66798301 12.18398717 9.4217699 13.90931053 10.1796875 15.6328125 C10.50283936 16.40149658 10.82599121 17.17018066 11.15893555 17.9621582 C12.17664836 20.22150432 12.17664836 20.22150432 13.85864258 22.23901367 C15.23046875 24.14453125 15.23046875 24.14453125 15.23046875 27.14453125 C11.86476563 27.54191301 10.52641353 27.34973179 7.6953125 25.38671875 C-3.51074222 14.89078496 -3.51074222 14.89078496 -4.03125 9.3671875 C-4.07766952 6.5927282 -4.05634437 3.90451984 -3.76953125 1.14453125 C-2.76953125 0.14453125 -2.76953125 0.14453125 0 0 Z " fill="#F38A29" transform="translate(100.76953125,170.85546875)"/>
<path d="M0 0 C2.92926029 5.0773845 3.34376803 9.80452499 2.06640625 15.46484375 C1.83381104 16.50084717 1.60121582 17.53685059 1.36157227 18.60424805 C1.09787842 19.70422119 0.83418457 20.80419434 0.5625 21.9375 C0.29171631 23.08323486 0.02093262 24.22896973 -0.25805664 25.40942383 C-4.38811137 42.29135692 -10.15773504 58.48701962 -18 74 C-18.99 73.34 -19.98 72.68 -21 72 C-20.63648438 71.27039063 -20.27296875 70.54078125 -19.8984375 69.7890625 C-9.27533396 47.72569362 -4.59509614 23.89963413 0 0 Z " fill="#13592F" transform="translate(151,129)"/>
<path d="M0 0 C-1.62647819 8.59709901 -4.55252532 19.55252532 -11 26 C-11.04080783 27.99958364 -11.04254356 30.00045254 -11 32 C-11.66 32 -12.32 32 -13 32 C-13.10957031 31.13117188 -13.21914063 30.26234375 -13.33203125 29.3671875 C-14.16321036 23.32593449 -14.87332558 18.25849788 -18 13 C-18 12.34 -18 11.68 -18 11 C-16.31874988 9.80457522 -14.57751917 8.69287157 -12.8125 7.625 C-9.79947527 5.79379086 -6.99990139 3.99991982 -4.26171875 1.7734375 C-2 0 -2 0 0 0 Z " fill="#13592F" transform="translate(287,143)"/>
<path d="M0 0 C1.625 2 1.625 2 3 4 C3.99 4 4.98 4 6 4 C6 4.66 6 5.32 6 6 C8.64 6.66 11.28 7.32 14 8 C14 8.33 14 8.66 14 9 C10.37 9 6.74 9 3 9 C3 9.66 3 10.32 3 11 C4.32258472 11.68774405 5.65986503 12.34711373 7 13 C8.0725 13.53625 9.145 14.0725 10.25 14.625 C14.58626933 16.21496542 17.43472166 16.24027781 22 16 C22 17.32 22 18.64 22 20 C12.63393784 20.89675063 6.54463775 18.49874851 -0.8515625 12.8046875 C-5.90571741 8.49085951 -5.90571741 8.49085951 -8 6 C-8 4.68 -8 3.36 -8 2 C-4.77856724 -0.14762184 -3.7404533 -0.561068 0 0 Z " fill="#2F2C27" transform="translate(214,116)"/>
<path d="M0 0 C1 1 1 1 1.5 4.5625 C1.48213957 9.50983877 -0.98538068 11.97639821 -4.2734375 15.43359375 C-7.44320897 18.30933664 -9.81177855 18.17822219 -14 18 C-15 17 -15 17 -15.3125 14.3125 C-14.80772063 8.96183863 -11.91354337 5.65761084 -8.0625 2.125 C-4.92088895 -0.05489338 -3.70871916 -0.63578043 0 0 Z " fill="#FDC13D" transform="translate(264,232)"/>
<path d="M0 0 C2.475 1.98 2.475 1.98 5 4 C4.67 4.99 4.34 5.98 4 7 C4.66 7.33 5.32 7.66 6 8 C6 8.99 6 9.98 6 11 C5.01 11.33 4.02 11.66 3 12 C3 12.66 3 13.32 3 14 C-10.68279728 17.36021544 -25.55423489 15.19282032 -38 9 C-34.8727245 7.99730853 -33.01817424 8.0756619 -29.875 8.9375 C-24.80000196 10.03746221 -19.8611279 10.29632751 -14.6875 10.375 C-13.91067871 10.40070068 -13.13385742 10.42640137 -12.33349609 10.45288086 C-8.41227727 10.46686403 -6.43594073 10.26520676 -3.0078125 8.1796875 C-0.53163287 5.49153919 -0.24508134 3.59452628 0 0 Z " fill="#C25B27" transform="translate(219,175)"/>
<path d="M0 0 C0.66 0 1.32 0 2 0 C2.66 1.98 3.32 3.96 4 6 C2.12952125 7.44371903 0.25399303 8.87993439 -1.625 10.3125 C-2.66914063 11.11300781 -3.71328125 11.91351563 -4.7890625 12.73828125 C-7.79871775 14.85822089 -10.6015107 16.58948494 -14 18 C-17.56650118 17.24554783 -19.41993723 16.58006277 -22 14 C-21.40461426 13.64695801 -20.80922852 13.29391602 -20.19580078 12.93017578 C-17.50369469 11.33152422 -14.81432643 9.72832285 -12.125 8.125 C-11.18785156 7.56941406 -10.25070312 7.01382813 -9.28515625 6.44140625 C-8.38925781 5.90644531 -7.49335938 5.37148437 -6.5703125 4.8203125 C-5.74289551 4.32805176 -4.91547852 3.83579102 -4.06298828 3.32861328 C-1.89285819 2.03394047 -1.89285819 2.03394047 0 0 Z " fill="#106E38" transform="translate(278,132)"/>
<path d="M0 0 C7.64542936 2.67590028 7.64542936 2.67590028 10 6 C10 6.99 10 7.98 10 9 C8.37191406 8.82210937 8.37191406 8.82210937 6.7109375 8.640625 C5.26573125 8.50924261 3.82041194 8.37909984 2.375 8.25 C1.66214844 8.16878906 0.94929687 8.08757812 0.21484375 8.00390625 C-5.15938576 7.56016253 -7.59500333 8.66718727 -12 12 C-12.99 12 -13.98 12 -15 12 C-14.63166144 5.61546499 -14.63166144 5.61546499 -11.5625 2.625 C-7.37314063 -0.03166692 -5.02564514 -0.3295505 0 0 Z " fill="#322E29" transform="translate(201,98)"/>
<path d="M0 0 C0.33 0 0.66 0 1 0 C1.99 4.95 2.98 9.9 4 15 C6.31 15.66 8.62 16.32 11 17 C8.98828125 19.046875 8.98828125 19.046875 6 21 C3.16530167 20.96474987 0.92129241 20.77321386 -1.8125 20.25 C-2.85180664 20.07984375 -2.85180664 20.07984375 -3.91210938 19.90625 C-5.61164336 19.62494782 -7.30643992 19.31527911 -9 19 C-7.6077541 14.37324343 -5.70479016 10.35313769 -3.375 6.125 C-2.74335938 4.97257812 -2.11171875 3.82015625 -1.4609375 2.6328125 C-0.97882813 1.76398437 -0.49671875 0.89515625 0 0 Z " fill="#11793C" transform="translate(167,52)"/>
<path d="M0 0 C0.33 0 0.66 0 1 0 C1.07347656 0.90492188 1.07347656 0.90492188 1.1484375 1.828125 C1.22320312 2.62734375 1.29796875 3.4265625 1.375 4.25 C1.44460937 5.03890625 1.51421875 5.8278125 1.5859375 6.640625 C2.02583767 9.14722596 2.64824483 10.84822646 4 13 C6.91765 14.9451 8.62537285 15.45276317 12 16 C10.55373881 19.81287042 8.69805188 21.32707177 5 23 C2.875 23 2.875 23 1 22 C-1.54803752 18.29927884 -2.94148894 14.59445597 -4.25 10.3125 C-4.60578125 9.17425781 -4.9615625 8.03601563 -5.328125 6.86328125 C-6 4 -6 4 -5 2 C-4.34 2 -3.68 2 -3 2 C-2.01 3.485 -2.01 3.485 -1 5 C-0.67 3.35 -0.34 1.7 0 0 Z " fill="#C85424" transform="translate(252,171)"/>
<path d="M0 0 C1.65 0 3.3 0 5 0 C8.9640495 6.83456811 8.78250385 13.28204099 8 21 C6.9796568 24.11403444 5.80519448 26.23579596 4 29 C3.67 29 3.34 29 3 29 C2.01 19.43 1.02 9.86 0 0 Z " fill="#11793C" transform="translate(286,82)"/>
<path d="M0 0 C0.99 0.66 1.98 1.32 3 2 C2.36016723 6.99381672 0.92211302 11.33627256 -0.875 16 C-1.13152344 16.68578125 -1.38804687 17.3715625 -1.65234375 18.078125 C-3.20810523 22.17470297 -4.82063565 26.1875653 -7 30 C-9.5625 31 -9.5625 31 -12 31 C-12.66 30.34 -13.32 29.68 -14 29 C-12.02 29 -10.04 29 -8 29 C-9.35468295 24.12314139 -11.71675909 22.51407619 -16 20 C-15.27734375 18.07421875 -15.27734375 18.07421875 -14 16 C-11.94140625 15.20703125 -11.94140625 15.20703125 -9.5625 14.8125 C-6.90608554 14.34423584 -4.57286691 13.8576223 -2 13 C-0.34950283 8.56971812 0.22973141 4.70949382 0 0 Z " fill="#33AF49" transform="translate(231,179)"/>
<path d="M0 0 C0.99 0.33 1.98 0.66 3 1 C2.52949219 1.43570313 2.05898437 1.87140625 1.57421875 2.3203125 C-3.18670496 6.87423953 -6.80834009 10.35846174 -7.171875 17.265625 C-7.18595031 20.51702258 -7.13013454 23.75145627 -7 27 C-11.14107131 24.87655458 -13.05264074 22.85922473 -15.3125 18.8125 C-15.82425781 17.91144531 -16.33601562 17.01039063 -16.86328125 16.08203125 C-17.23839844 15.39496094 -17.61351562 14.70789063 -18 14 C-16.19587357 10.73539027 -15.16605307 9.11070205 -12 7 C-12.66 9.64 -13.32 12.28 -14 15 C-13.34 15 -12.68 15 -12 15 C-11.773125 14.484375 -11.54625 13.96875 -11.3125 13.4375 C-8.45305666 8.12710522 -5.17762749 3.27008052 0 0 Z " fill="#CA5F27" transform="translate(253,224)"/>
<path d="M0 0 C1.89913951 3.79827902 0.98747432 8.78655095 0.87304688 12.99609375 C0.79721672 18.37557402 1.52520328 22.8242983 3 28 C3.3564309 29.99601306 3.69922675 31.994845 4 34 C-1.53986084 30.61452949 -3.43528437 26.0757575 -5 20 C-6.0183695 12.66396783 -5.51444496 7.36974145 -1.09375 1.328125 C-0.7328125 0.88984375 -0.371875 0.4515625 0 0 Z " fill="#4AB54D" transform="translate(105,88)"/>
<path d="M0 0 C0.3107384 3.49910275 0.4380966 5.37776819 -1.62060547 8.30175781 C-2.73266357 9.36668457 -2.73266357 9.36668457 -3.8671875 10.453125 C-5.07181641 11.62875 -5.07181641 11.62875 -6.30078125 12.828125 C-7.15027344 13.62734375 -7.99976563 14.4265625 -8.875 15.25 C-9.71675781 16.0646875 -10.55851563 16.879375 -11.42578125 17.71875 C-12.98407384 19.22468396 -14.54843146 20.72438417 -16.12060547 22.21582031 C-17.43072213 23.45956318 -18.72263905 24.72263905 -20 26 C-20.33 25.01 -20.66 24.02 -21 23 C-23.01508358 22.26676204 -23.01508358 22.26676204 -25 22 C-24.67 21.34 -24.34 20.68 -24 20 C-23.4124292 19.88148682 -22.8248584 19.76297363 -22.21948242 19.64086914 C-19.13118787 18.74913301 -17.71875533 17.04062295 -15.48828125 14.74609375 C-14.64845703 13.89208984 -13.80863281 13.03808594 -12.94335938 12.15820312 C-12.07517578 11.26037109 -11.20699219 10.36253906 -10.3125 9.4375 C-8.58147811 7.66336108 -6.84851547 5.89111292 -5.11328125 4.12109375 C-4.34798096 3.3314624 -3.58268066 2.54183105 -2.79418945 1.72827148 C-1 0 -1 0 0 0 Z " fill="#13572E" transform="translate(150,116)"/>
<path d="M0 0 C0 3 0 3 -1.5 6.625 C-4.99038472 16.81359919 -3.75512105 28.65770818 -0.36328125 38.6796875 C-0.24339844 39.44539063 -0.12351562 40.21109375 0 41 C-1.41796875 42.8203125 -1.41796875 42.8203125 -3 44 C-6.07807842 36.23788921 -7.19471481 29.38983204 -7.25 21.0625 C-7.270625 20.28970703 -7.29125 19.51691406 -7.3125 18.72070312 C-7.36454923 11.02392307 -5.1512272 5.8617413 0 0 Z " fill="#126D38" transform="translate(112,78)"/>
<path d="M0 0 C0.33 0 0.66 0 1 0 C1 3.3 1 6.6 1 10 C7.01737285 11.43270782 12.8424661 12.4135682 19 13 C15.83592112 16.16407888 11.75660664 16.59374529 7.5 17.6875 C6.61957031 17.92533203 5.73914063 18.16316406 4.83203125 18.40820312 C3.99027344 18.62798828 3.14851562 18.84777344 2.28125 19.07421875 C1.12206055 19.37718872 1.12206055 19.37718872 -0.06054688 19.6862793 C-2 20 -2 20 -4 19 C-3.51917969 18.32582031 -3.03835937 17.65164062 -2.54296875 16.95703125 C-0.68179418 13.39017265 -0.49954907 10.69035008 -0.3125 6.6875 C-0.24675781 5.43324219 -0.18101562 4.17898437 -0.11328125 2.88671875 C-0.05720703 1.45779297 -0.05720703 1.45779297 0 0 Z " fill="#C05F2B" transform="translate(197,232)"/>
<path d="M0 0 C0.66 0.33 1.32 0.66 2 1 C-0.64 6.28 -3.28 11.56 -6 17 C-8.672336 13.43688534 -9.77263971 11.15414253 -11 7 C-9.21475351 5.80286983 -7.4215972 4.61752721 -5.625 3.4375 C-4.62726563 2.77621094 -3.62953125 2.11492187 -2.6015625 1.43359375 C-1.74304688 0.96050781 -0.88453125 0.48742187 0 0 Z " fill="#107A3D" transform="translate(280,147)"/>
<path d="M0 0 C7.09833098 -0.37214551 11.27822743 -0.20842463 16.8125 4.5625 C18 6 18 6 18 8 C10.65669115 8.6119424 6.01355723 6.00903816 0 2 C0 1.34 0 0.68 0 0 Z " fill="#EC6BA5" transform="translate(217,125)"/>
<path d="M0 0 C-1.45044271 4.10958767 -3.51110752 7.43258745 -6 11 C-7.44037669 10.06692579 -8.87718985 9.12834923 -10.3125 8.1875 C-11.51326172 7.40439453 -11.51326172 7.40439453 -12.73828125 6.60546875 C-14.7237402 5.19610151 -16.3491852 3.77903343 -18 2 C-15.56281065 1.66424944 -13.12529385 1.33130715 -10.6875 1 C-9.99720703 0.90460938 -9.30691406 0.80921875 -8.59570312 0.7109375 C-5.70352927 0.31972558 -2.92235023 0 0 0 Z " fill="#BC4E27" transform="translate(231,160)"/>
<path d="M0 0 C2.63079887 0.56331456 5.25271463 1.14933976 7.875 1.75 C8.62136719 1.90726563 9.36773437 2.06453125 10.13671875 2.2265625 C15.62298055 3.51163283 15.62298055 3.51163283 17.5078125 5.953125 C18 8 18 8 18 11 C14.35660095 11.32492302 12.4648138 11.28278412 9.296875 9.35546875 C8.45640625 8.64003906 7.6159375 7.92460937 6.75 7.1875 C5.47382812 6.12595703 5.47382812 6.12595703 4.171875 5.04296875 C2 3 2 3 0 0 Z " fill="#C8912A" transform="translate(122,228)"/>
<path d="M0 0 C2.88931567 2.76369325 3.8756729 4.26785151 4.5625 8.3125 C4 12 4 12 2.3203125 13.5 C0.2543631 14.77135348 -1.84020683 15.89739049 -4 17 C-4.99 17.66 -5.98 18.32 -7 19 C-6.32784675 15.1911316 -5.46704554 11.58611131 -4 8 C-3.01 7.67 -2.02 7.34 -1 7 C-0.67 4.69 -0.34 2.38 0 0 Z " fill="#F08A29" transform="translate(252,205)"/>
<path d="M0 0 C0 1.98 0 3.96 0 6 C-0.66 6 -1.32 6 -2 6 C-2.33 5.34 -2.66 4.68 -3 4 C-3.33 5.32 -3.66 6.64 -4 8 C-5.98 8 -7.96 8 -10 8 C-10.309375 7.21625 -10.61875 6.4325 -10.9375 5.625 C-11.92875038 3.07669872 -11.92875038 3.07669872 -13 1 C-4.57142857 -1.42857143 -4.57142857 -1.42857143 0 0 Z " fill="#E68629" transform="translate(187,259)"/>
<path d="M0 0 C-0.0625 1.8125 -0.0625 1.8125 -1 4 C-5.52829116 6.48612064 -8.76841536 7.38279888 -14 7 C-13.9375 5.1875 -13.9375 5.1875 -13 3 C-8.47170884 0.51387936 -5.23158464 -0.38279888 0 0 Z " fill="#F5A1BD" transform="translate(200,116)"/>
<path d="M0 0 C0 3 0 3 -1.28515625 4.54296875 C-1.87167969 5.08566406 -2.45820313 5.62835938 -3.0625 6.1875 C-6.44300049 9.40343252 -9.45134964 12.80326896 -12.421875 16.3984375 C-14 18 -14 18 -17 19 C-16.42667654 15.35818477 -15.06870972 13.71572695 -12.4375 11.1875 C-11.36822266 10.15689453 -11.36822266 10.15689453 -10.27734375 9.10546875 C-6.91424748 5.99619107 -3.48787406 2.96840346 0 0 Z " fill="#DFD1CB" transform="translate(280,187)"/>
<path d="M0 0 C2.27203802 0.2821289 4.54261684 0.57602856 6.8125 0.875 C8.70935547 1.11863281 8.70935547 1.11863281 10.64453125 1.3671875 C14 2 14 2 17 4 C13.17040067 6.61109045 10.1738461 5.86230768 5.75 5.125 C4.48671875 4.92132813 3.2234375 4.71765625 1.921875 4.5078125 C0.95765625 4.34023437 -0.0065625 4.17265625 -1 4 C-0.67 2.68 -0.34 1.36 0 0 Z " fill="#13582E" transform="translate(159,67)"/>
<path d="M0 0 C0.66 0 1.32 0 2 0 C2.33 1.32 2.66 2.64 3 4 C3.66 4 4.32 4 5 4 C5.66 2.68 6.32 1.36 7 0 C7.66 0 8.32 0 9 0 C8.42655063 2.86724686 8.1385485 3.8614515 6 6 C3.1796875 6.1953125 3.1796875 6.1953125 -0.125 6.125 C-1.22070312 6.10695313 -2.31640625 6.08890625 -3.4453125 6.0703125 C-4.28835937 6.04710937 -5.13140625 6.02390625 -6 6 C-5.67 5.34 -5.34 4.68 -5 4 C-3.02 4 -1.04 4 1 4 C0.67 2.68 0.34 1.36 0 0 Z " fill="#DED0CA" transform="translate(224,258)"/>
<path d="M0 0 C0 4.20726187 -2.31118779 6.40020125 -4.8125 9.5625 C-5.49022461 10.44711914 -5.49022461 10.44711914 -6.18164062 11.34960938 C-8.30995289 14.08068453 -10.09710339 16.0647356 -13 18 C-12.50236873 13.72185659 -11.33315555 11.89470344 -8.1875 9 C-5.18660053 6.15534126 -2.48857103 3.31809471 0 0 Z " fill="#E0D2CC" transform="translate(304,168)"/>
<path d="M0 0 C1.98 0.99 1.98 0.99 4 2 C4 2.66 4 3.32 4 4 C4.66 4 5.32 4 6 4 C6.66 2.68 7.32 1.36 8 0 C8.33 0.66 8.66 1.32 9 2 C11.01669827 3.13350534 11.01669827 3.13350534 13 4 C10.1778917 5.91903365 8.87098068 5.99110212 5.375 5.75 C2 5 2 5 0 3 C0 2.01 0 1.02 0 0 Z " fill="#E2D6D0" transform="translate(197,261)"/>
<path d="M0 0 C0.33 0 0.66 0 1 0 C1.03738281 0.68964844 1.07476562 1.37929687 1.11328125 2.08984375 C1.51112357 7.77664868 2.30124515 12.70892897 4.37890625 18.02734375 C5 20 5 20 5 24 C4.34 24 3.68 24 3 24 C0.26022667 15.86222087 -0.36741339 8.55937129 0 0 Z " fill="#B85A27" transform="translate(143,210)"/>
<path d="M0 0 C-3.81516464 1.30062431 -7.27561763 0.89369853 -11.25 0.5625 C-12.51328125 0.46066406 -13.7765625 0.35882813 -15.078125 0.25390625 C-16.52445313 0.12822266 -16.52445313 0.12822266 -18 0 C-12.99751033 -5.00248967 -5.31507333 -3.64462171 0 0 Z " fill="#166D39" transform="translate(216,64)"/>
<path d="M0 0 C0.66 0 1.32 0 2 0 C3.00926479 4.15626368 3.10239579 8.04365094 3.0625 12.3125 C3.05347656 13.56675781 3.04445313 14.82101563 3.03515625 16.11328125 C3.01775391 17.54220703 3.01775391 17.54220703 3 19 C2.67 19 2.34 19 2 19 C1.67 14.71 1.34 10.42 1 6 C-0.65 6.66 -2.3 7.32 -4 8 C-2.68 5.36 -1.36 2.72 0 0 Z " fill="#186938" transform="translate(307,118)"/>
<path d="M0 0 C0 3.96009225 -1.40780183 5.14520759 -3.875 8.1875 C-4.95394531 9.53908203 -4.95394531 9.53908203 -6.0546875 10.91796875 C-7.01761719 11.94857422 -7.01761719 11.94857422 -8 13 C-8.66 13 -9.32 13 -10 13 C-9.48223379 8.89552608 -7.35372556 7.04300477 -4.4375 4.25 C-3.61121094 3.45078125 -2.78492188 2.6515625 -1.93359375 1.828125 C-1.29550781 1.22484375 -0.65742188 0.6215625 0 0 Z " fill="#E0D3CE" transform="translate(291,222)"/>
<path d="M0 0 C0.33 0.66 0.66 1.32 1 2 C-0.19708952 4.29959419 -1.43273643 6.43979069 -2.8125 8.625 C-3.18181641 9.23601562 -3.55113281 9.84703125 -3.93164062 10.4765625 C-4.89355674 12.02391768 -5.94119645 13.51725736 -7 15 C-7.66 15 -8.32 15 -9 15 C-7.61219205 11.10993227 -5.7847773 8.03441292 -3.375 4.6875 C-2.74335938 3.80449219 -2.11171875 2.92148438 -1.4609375 2.01171875 C-0.97882813 1.34785156 -0.49671875 0.68398437 0 0 Z " fill="#DDD0C9" transform="translate(311,191)"/>
<path d="M0 0 C2.05078125 0.03255208 4.1015625 0.06510417 6.15234375 0.09765625 C6.15234375 1.08765625 6.15234375 2.07765625 6.15234375 3.09765625 C3.07617188 3.390625 3.07617188 3.390625 0 3.68359375 C-0.91458984 3.88855469 -0.91458984 3.88855469 -1.84765625 4.09765625 C-2.17765625 4.75765625 -2.50765625 5.41765625 -2.84765625 6.09765625 C-2.89037725 4.4315372 -2.88829457 2.7638274 -2.84765625 1.09765625 C-1.84765625 0.09765625 -1.84765625 0.09765625 0 0 Z " fill="#342D26" transform="translate(245.84765625,110.90234375)"/>
<path d="M0 0 C0 3.56229451 -0.76109009 4.41109679 -2.875 7.1875 C-3.40867187 7.90292969 -3.94234375 8.61835938 -4.4921875 9.35546875 C-4.98976563 9.89816406 -5.48734375 10.44085938 -6 11 C-6.66 11 -7.32 11 -8 11 C-7.43040847 7.37386801 -6.07625466 5.74482259 -3.4375 3.25 C-2.79683594 2.63640625 -2.15617187 2.0228125 -1.49609375 1.390625 C-1.00238281 0.93171875 -0.50867188 0.4728125 0 0 Z " fill="#E2D6D0" transform="translate(277,210)"/>
<path d="M0 0 C0 3.44360632 -0.79591532 4.74795392 -2.5 7.6875 C-2.9640625 8.49574219 -3.428125 9.30398437 -3.90625 10.13671875 C-4.44765625 11.05904297 -4.44765625 11.05904297 -5 12 C-5.66 12 -6.32 12 -7 12 C-6.38801624 8.56049636 -5.07941153 6.48435515 -2.9375 3.75 C-2.38964844 3.04359375 -1.84179688 2.3371875 -1.27734375 1.609375 C-0.85582031 1.07828125 -0.43429687 0.5471875 0 0 Z " fill="#DED0C9" transform="translate(318,164)"/>
<path d="M0 0 C6.15234375 0.5859375 6.15234375 0.5859375 8 1 C8.33 1.66 8.66 2.32 9 3 C8.01 4.485 8.01 4.485 7 6 C3.31197956 4.77065985 2.27643027 3.06140622 0 0 Z " fill="#726B65" transform="translate(212,115)"/>
<path d="M0 0 C0 3.60573896 -0.81707462 4.41336566 -3 7.1875 C-3.556875 7.90292969 -4.11375 8.61835938 -4.6875 9.35546875 C-5.120625 9.89816406 -5.55375 10.44085938 -6 11 C-6.66 10.67 -7.32 10.34 -8 10 C-5.36 6.7 -2.72 3.4 0 0 Z " fill="#E2D5CF" transform="translate(294,205)"/>
<path d="M0 0 C0 3.20395416 -0.74335022 5.09399739 -2 8 C-2.99 7.67 -3.98 7.34 -5 7 C-3.47793991 4.37098712 -2.15634036 2.15634036 0 0 Z " fill="#EB8629" transform="translate(240,231)"/>
<path d="M0 0 C0.33 0.66 0.66 1.32 1 2 C-0.59617578 5.83082186 -1.49984971 7.66656647 -5 10 C-4.38545304 6.00544473 -2.29353263 3.25533664 0 0 Z " fill="#D7C7BF" transform="translate(318,149)"/>
<path d="M0 0 C0.99 0.66 1.98 1.32 3 2 C3 2.66 3 3.32 3 4 C0.69 4 -1.62 4 -4 4 C-4.33 3.34 -4.66 2.68 -5 2 C-3.35 2 -1.7 2 0 2 C0 1.34 0 0.68 0 0 Z " fill="#E168A0" transform="translate(232,129)"/>
<path d="M0 0 C0.598125 0.350625 1.19625 0.70125 1.8125 1.0625 C1.4825 1.7225 1.1525 2.3825 0.8125 3.0625 C-1.625 2.6875 -1.625 2.6875 -4.1875 2.0625 C-4.5175 1.4025 -4.8475 0.7425 -5.1875 0.0625 C-2.1875 -0.9375 -2.1875 -0.9375 0 0 Z " fill="#975E29" transform="translate(231.1875,106.9375)"/>
<path d="M0 0 C2 1.375 2 1.375 4 3 C4 3.66 4 4.32 4 5 C2.68 5.33 1.36 5.66 0 6 C0 4.02 0 2.04 0 0 Z " fill="#D36227" transform="translate(219,175)"/>
<path d="M0 0 C1 3 1 3 1 7 C-0.65 7.66 -2.3 8.32 -4 9 C-2.68 6.03 -1.36 3.06 0 0 Z " fill="#A6877A" transform="translate(313,153)"/>
</svg>
