<?xml version="1.0" encoding="UTF-8"?>
<svg version="1.1" xmlns="http://www.w3.org/2000/svg" width="256" height="256">
<path d="M0 0 C3.29312775 2.92926223 6.43399464 5.9985205 9.55078125 9.11328125 C10.48535156 10.02464844 11.41992188 10.93601563 12.3828125 11.875 C23.99867784 23.78998634 32.93980478 38.46626801 38.55078125 54.11328125 C38.77846191 54.74298828 39.00614258 55.37269531 39.24072266 56.02148438 C48.02015242 80.72313707 47.49010327 107.5934508 42.55078125 133.11328125 C43.54078125 133.11328125 44.53078125 133.11328125 45.55078125 133.11328125 C45.01610879 140.4485121 43.27756048 146.86626404 40.9453125 153.82421875 C40.40278084 155.4591478 40.40278084 155.4591478 39.84928894 157.12710571 C39.08508539 159.4163199 38.31581624 161.70384866 37.54174805 163.98974609 C36.36229978 167.49119495 35.21699656 171.00269669 34.07226562 174.515625 C33.32368457 176.74418597 32.57310244 178.97207598 31.8203125 181.19921875 C31.48256302 182.24919037 31.14481354 183.29916199 30.79682922 184.38095093 C28.30856002 191.56303197 28.30856002 191.56303197 24.48950195 194.33618164 C20.62975034 195.35683375 18.62220097 194.5998118 14.92578125 193.17578125 C10.67429072 191.38432876 10.67429072 191.38432876 6.27734375 191.734375 C4.25247539 193.351521 3.66044159 194.79387355 2.55078125 197.11328125 C-10.63049141 209.54133833 -28.96009732 218.74821321 -46.19921875 223.86328125 C-46.90820312 224.07404297 -47.6171875 224.28480469 -48.34765625 224.50195312 C-55.82501658 226.63734161 -63.08057478 227.27714541 -70.828125 227.31640625 C-71.71725082 227.32210632 -72.60637665 227.3278064 -73.52244568 227.3336792 C-75.39914782 227.34308731 -77.27586616 227.34964643 -79.15258789 227.35351562 C-81.97898375 227.36316944 -84.80463529 227.39421159 -87.63085938 227.42578125 C-98.00897338 227.48686864 -107.40225153 226.95029545 -117.44921875 224.11328125 C-118.20307861 223.90912598 -118.95693848 223.7049707 -119.73364258 223.49462891 C-135.67854582 218.92061644 -153.10896964 210.53389499 -164.95703125 198.59375 C-166.54528223 196.92990574 -166.54528223 196.92990574 -169.44921875 195.11328125 C-171.75122212 195.07914154 -171.75122212 195.07914154 -174.140625 195.484375 C-174.94830322 195.59579834 -175.75598145 195.70722168 -176.58813477 195.82202148 C-177.20229248 195.91813721 -177.8164502 196.01425293 -178.44921875 196.11328125 C-178.70501709 195.4898584 -178.96081543 194.86643555 -179.22436523 194.22412109 C-183.96549246 182.76050005 -188.66582739 171.82674305 -195.83203125 161.66015625 C-197.44921875 159.11328125 -197.44921875 159.11328125 -197.44921875 156.11328125 C-198.43921875 156.44328125 -199.42921875 156.77328125 -200.44921875 157.11328125 C-202.13770404 154.41799169 -203.79582292 151.70521278 -205.44921875 148.98828125 C-205.92617187 148.22773438 -206.403125 147.4671875 -206.89453125 146.68359375 C-209.47379747 142.40938115 -211.32740654 139.27263454 -210.44921875 134.11328125 C-209.45921875 133.12328125 -209.45921875 133.12328125 -208.44921875 132.11328125 C-208.64055498 129.42531586 -208.94516018 126.83875651 -209.32421875 124.17578125 C-213.83848476 87.10900233 -208.05023779 51.38118807 -184.82421875 21.30078125 C-183.70157476 19.90305231 -182.57682327 18.50701141 -181.44921875 17.11328125 C-180.68609375 16.10265625 -179.92296875 15.09203125 -179.13671875 14.05078125 C-178.57984375 13.41140625 -178.02296875 12.77203125 -177.44921875 12.11328125 C-176.78921875 12.11328125 -176.12921875 12.11328125 -175.44921875 12.11328125 C-175.22234375 11.55640625 -174.99546875 10.99953125 -174.76171875 10.42578125 C-165.04501902 -6.69411827 -138.47125853 -18.1050002 -120.44921875 -23.88671875 C-119.26005859 -24.29857422 -119.26005859 -24.29857422 -118.046875 -24.71875 C-78.66196887 -37.67683095 -31.15433001 -26.72031346 0 0 Z " fill="#FC1B1B" transform="translate(210.44921875,28.88671875)"/>
<path d="M0 0 C6.81936371 5.05327101 12.83676722 11.74298299 14.359375 20.37109375 C15.25996075 32.33849288 12.98747448 40.20940769 5.359375 49.37109375 C4.575625 50.36109375 3.791875 51.35109375 2.984375 52.37109375 C2.18 53.36109375 2.18 53.36109375 1.359375 54.37109375 C3.009375 55.03109375 4.659375 55.69109375 6.359375 56.37109375 C6.606875 55.58734375 6.854375 54.80359375 7.109375 53.99609375 C8.59026966 50.88621496 9.2112543 50.56227455 12.359375 49.37109375 C16.35411631 48.822593 20.33143382 48.63378557 24.359375 48.37109375 C25.679375 44.08109375 26.999375 39.79109375 28.359375 35.37109375 C50.139375 35.37109375 71.919375 35.37109375 94.359375 35.37109375 C94.359375 47.74609375 94.359375 47.74609375 92.859375 52.55859375 C92.5809375 53.48027344 92.3025 54.40195313 92.015625 55.3515625 C91.7990625 56.01800781 91.5825 56.68445313 91.359375 57.37109375 C92.46796875 57.57605469 93.5765625 57.78101563 94.71875 57.9921875 C96.18230367 58.26425837 97.64584467 58.53639737 99.109375 58.80859375 C99.83898437 58.94330078 100.56859375 59.07800781 101.3203125 59.21679688 C104.69484175 59.84568642 108.03572194 60.51431548 111.359375 61.37109375 C110.82470254 68.7063246 109.08615423 75.12407654 106.75390625 82.08203125 C106.39221848 83.17198395 106.0305307 84.26193665 105.65788269 85.38491821 C104.89367914 87.6741324 104.12440999 89.96166116 103.3503418 92.24755859 C102.17089353 95.74900745 101.02559031 99.26050919 99.88085938 102.7734375 C99.13227832 105.00199847 98.38169619 107.22988848 97.62890625 109.45703125 C97.29115677 110.50700287 96.95340729 111.55697449 96.60542297 112.63876343 C94.11715377 119.82084447 94.11715377 119.82084447 90.2980957 122.59399414 C86.43834409 123.61464625 84.43079472 122.8576243 80.734375 121.43359375 C76.48288447 119.64214126 76.48288447 119.64214126 72.0859375 119.9921875 C70.06106914 121.6093335 69.46903534 123.05168605 68.359375 125.37109375 C55.17810234 137.79915083 36.84849643 147.00602571 19.609375 152.12109375 C18.90039062 152.33185547 18.19140625 152.54261719 17.4609375 152.75976562 C9.98357717 154.89515411 2.72801897 155.53495791 -5.01953125 155.57421875 C-5.90865707 155.57991882 -6.7977829 155.5856189 -7.71385193 155.5914917 C-9.59055407 155.60089981 -11.46727241 155.60745893 -13.34399414 155.61132812 C-16.17039 155.62098194 -18.99604154 155.65202409 -21.82226562 155.68359375 C-32.20037963 155.74468114 -41.59365778 155.20810795 -51.640625 152.37109375 C-52.39448486 152.16693848 -53.14834473 151.9627832 -53.92504883 151.75244141 C-69.86995207 147.17842894 -87.30037589 138.79170749 -99.1484375 126.8515625 C-100.73668848 125.18771824 -100.73668848 125.18771824 -103.640625 123.37109375 C-105.94262837 123.33695404 -105.94262837 123.33695404 -108.33203125 123.7421875 C-109.13970947 123.85361084 -109.9473877 123.96503418 -110.77954102 124.07983398 C-111.39369873 124.17594971 -112.00785645 124.27206543 -112.640625 124.37109375 C-112.89642334 123.7476709 -113.15222168 123.12424805 -113.41577148 122.48193359 C-118.15689871 111.01831255 -122.85723364 100.08455555 -130.0234375 89.91796875 C-131.640625 87.37109375 -131.640625 87.37109375 -131.640625 84.37109375 C-133.125625 84.86609375 -133.125625 84.86609375 -134.640625 85.37109375 C-136.32911029 82.67580419 -137.98722917 79.96302528 -139.640625 77.24609375 C-140.35605469 76.10527344 -140.35605469 76.10527344 -141.0859375 74.94140625 C-145.60551183 67.45182594 -145.60551183 67.45182594 -144.640625 62.37109375 C-142.69891618 60.06909773 -140.79230972 58.78168598 -138.06640625 57.546875 C-137.39931641 57.24072266 -136.73222656 56.93457031 -136.04492188 56.61914062 C-135.35462891 56.31041016 -134.66433594 56.00167969 -133.953125 55.68359375 C-133.25123047 55.36326172 -132.54933594 55.04292969 -131.82617188 54.71289062 C-130.10037357 53.92630228 -128.3708539 53.14788778 -126.640625 52.37109375 C-126.888125 50.94796875 -126.888125 50.94796875 -127.140625 49.49609375 C-127.70754004 44.81904469 -127.640625 40.08237601 -127.640625 35.37109375 C-106.520625 35.37109375 -85.400625 35.37109375 -63.640625 35.37109375 C-58.640625 47.37109375 -58.640625 47.37109375 -58.640625 49.37109375 C-58.04894531 49.15453125 -57.45726563 48.93796875 -56.84765625 48.71484375 C-48.99914873 45.94930113 -48.99914873 45.94930113 -44.640625 46.37109375 C-44.640625 42.75077818 -45.7836756 41.41649077 -47.640625 38.37109375 C-50.00663525 31.09955557 -49.60080761 21.43549091 -46.640625 14.37109375 C-42.38279424 6.08636543 -35.98753925 -0.22957045 -27.203125 -3.56640625 C-17.87457713 -6.17386494 -8.26856098 -5.10057682 0 0 Z " fill="#3C6AA6" transform="translate(144.640625,100.62890625)"/>
<path d="M0 0 C3.29312775 2.92926223 6.43399464 5.9985205 9.55078125 9.11328125 C10.48535156 10.02464844 11.41992188 10.93601563 12.3828125 11.875 C23.99867784 23.78998634 32.93980478 38.46626801 38.55078125 54.11328125 C38.77846191 54.74298828 39.00614258 55.37269531 39.24072266 56.02148438 C47.87431144 80.3128014 47.74043694 107.02994542 42.55078125 132.11328125 C38.67882955 133.40393182 36.10845524 132.33652223 32.36328125 131.17578125 C31.70908203 130.98048828 31.05488281 130.78519531 30.38085938 130.58398438 C28.76850718 130.10145562 27.15931836 129.6083792 25.55078125 129.11328125 C25.68355469 128.44683594 25.81632813 127.78039062 25.953125 127.09375 C26.21802734 125.71123047 26.21802734 125.71123047 26.48828125 124.30078125 C26.66230469 123.40746094 26.83632812 122.51414063 27.015625 121.59375 C27.75328653 116.79625784 28.11133231 111.94721962 28.55078125 107.11328125 C6.77078125 107.11328125 -15.00921875 107.11328125 -37.44921875 107.11328125 C-37.77921875 109.42328125 -38.10921875 111.73328125 -38.44921875 114.11328125 C-39.28399143 116.56569632 -40.34481038 118.76041125 -41.44921875 121.11328125 C-42.2690625 121.16226563 -43.08890625 121.21125 -43.93359375 121.26171875 C-45.01125 121.33648437 -46.08890625 121.41125 -47.19921875 121.48828125 C-48.80023438 121.59269531 -48.80023438 121.59269531 -50.43359375 121.69921875 C-53.28075609 122.09015037 -55.0848332 122.50728352 -57.44921875 124.11328125 C-58.26093103 126.66848046 -58.26093103 126.66848046 -58.44921875 129.11328125 C-60.42921875 128.12328125 -62.40921875 127.13328125 -64.44921875 126.11328125 C-63.13008337 123.22254438 -61.66178208 121.06888425 -59.51171875 118.73828125 C-53.25030202 111.59110313 -52.07685256 104.5096825 -52.16796875 95.25 C-52.84292103 87.72240717 -56.06054737 81.38220438 -61.44921875 76.11328125 C-69.83465912 69.43063146 -77.76563442 67.08153323 -88.44921875 68.11328125 C-96.59347884 69.62147756 -103.32903563 73.97920215 -108.3125 80.58203125 C-111.09087483 84.98499279 -113.23791883 88.83078333 -113.44921875 94.11328125 C-113.52269531 95.49193359 -113.52269531 95.49193359 -113.59765625 96.8984375 C-113.80177663 103.2340201 -113.36544793 107.50514821 -110.44921875 113.11328125 C-109.76085362 115.10591716 -109.08640476 117.10369462 -108.44921875 119.11328125 C-109.10921875 119.44328125 -109.76921875 119.77328125 -110.44921875 120.11328125 C-110.44921875 119.45328125 -110.44921875 118.79328125 -110.44921875 118.11328125 C-111.20847656 118.32984375 -111.96773438 118.54640625 -112.75 118.76953125 C-114.24080078 119.1871875 -114.24080078 119.1871875 -115.76171875 119.61328125 C-117.24091797 120.0309375 -117.24091797 120.0309375 -118.75 120.45703125 C-121.44921875 121.11328125 -121.44921875 121.11328125 -124.44921875 121.11328125 C-125.09917172 119.6984999 -125.74400597 118.28136638 -126.38671875 116.86328125 C-126.74636719 116.074375 -127.10601562 115.28546875 -127.4765625 114.47265625 C-128.44921875 112.11328125 -128.44921875 112.11328125 -129.44921875 108.11328125 C-161.12921875 107.61828125 -161.12921875 107.61828125 -193.44921875 107.11328125 C-192.78921875 112.72328125 -192.12921875 118.33328125 -191.44921875 124.11328125 C-193.53234375 125.26828125 -195.61546875 126.42328125 -197.76171875 127.61328125 C-198.73878784 128.16145508 -198.73878784 128.16145508 -199.7355957 128.72070312 C-202.5290742 130.24654182 -204.21910867 131.11328125 -207.44921875 131.11328125 C-207.76346661 129.42610586 -208.0755203 127.73852176 -208.38671875 126.05078125 C-208.56074219 125.11105469 -208.73476562 124.17132813 -208.9140625 123.203125 C-209.09066406 122.18347656 -209.26726562 121.16382813 -209.44921875 120.11328125 C-209.63097656 119.09878906 -209.81273437 118.08429688 -210 117.0390625 C-213.93061923 82.68886836 -206.09460882 48.84842019 -184.82421875 21.30078125 C-183.70157476 19.90305231 -182.57682327 18.50701141 -181.44921875 17.11328125 C-180.68609375 16.10265625 -179.92296875 15.09203125 -179.13671875 14.05078125 C-178.57984375 13.41140625 -178.02296875 12.77203125 -177.44921875 12.11328125 C-176.78921875 12.11328125 -176.12921875 12.11328125 -175.44921875 12.11328125 C-175.22234375 11.55640625 -174.99546875 10.99953125 -174.76171875 10.42578125 C-165.04501902 -6.69411827 -138.47125853 -18.1050002 -120.44921875 -23.88671875 C-119.26005859 -24.29857422 -119.26005859 -24.29857422 -118.046875 -24.71875 C-78.66196887 -37.67683095 -31.15433001 -26.72031346 0 0 Z M-112.44921875 -7.88671875 C-113.10083984 -7.71011719 -113.75246094 -7.53351562 -114.42382812 -7.3515625 C-143.8338215 0.74293109 -166.54795296 21.93062469 -181.6015625 47.76953125 C-188.87572126 60.93375936 -192.44921875 75.19439774 -192.44921875 90.11328125 C-171.32921875 90.11328125 -150.20921875 90.11328125 -128.44921875 90.11328125 C-127.12921875 85.82328125 -125.80921875 81.53328125 -124.44921875 77.11328125 C-119.34346382 68.10312549 -112.74980591 61.71102914 -103.44921875 57.11328125 C-102.5984375 56.68273437 -101.74765625 56.2521875 -100.87109375 55.80859375 C-90.02504829 51.0999812 -77.16950074 51.88009292 -66.2578125 55.92578125 C-55.71244431 60.20816427 -46.46856888 67.93613766 -41.13671875 78.11328125 C-39.34619764 82.35747943 -37.90589936 86.74323942 -36.44921875 91.11328125 C-15.32921875 91.11328125 5.79078125 91.11328125 27.55078125 91.11328125 C27.68678637 83.85017023 27.68678637 83.85017023 26.59765625 77.140625 C26.39011719 76.30337891 26.18257812 75.46613281 25.96875 74.60351562 C25.74832031 73.76111328 25.52789062 72.91871094 25.30078125 72.05078125 C25.09582031 71.20451172 24.89085937 70.35824219 24.6796875 69.48632812 C23.44080556 64.61714667 21.85772151 60.28894888 19.47558594 55.86181641 C18.56570027 54.14148876 17.80599034 52.34440283 17.05078125 50.55078125 C6.87944966 27.24147968 -12.39865452 10.69565753 -34.44921875 -0.88671875 C-35.80080078 -1.61181641 -35.80080078 -1.61181641 -37.1796875 -2.3515625 C-44.14845659 -5.8201329 -51.3583728 -7.46618771 -58.921875 -9.08984375 C-62.44921875 -9.88671875 -62.44921875 -9.88671875 -64.44921875 -10.88671875 C-80.62124309 -13.60852723 -96.77136953 -12.35764459 -112.44921875 -7.88671875 Z " fill="#020101" transform="translate(210.44921875,28.88671875)"/>
<path d="M0 0 C-0.33 2.64 -0.66 5.28 -1 8 C2.27077164 8.16789217 5.54162664 8.33410238 8.8125 8.5 C9.74126953 8.54769531 10.67003906 8.59539062 11.62695312 8.64453125 C12.9659668 8.71220703 12.9659668 8.71220703 14.33203125 8.78125 C15.56530151 8.8440918 15.56530151 8.8440918 16.82348633 8.90820312 C18.54772929 8.98092498 20.27422415 9 22 9 C22.495 9.99 22.495 9.99 23 11 C24.32 11 25.64 11 27 11 C27.495 13.475 27.495 13.475 28 16 C30.68539415 16.53466228 33.37232628 17.05294683 36.0625 17.5625 C36.81466797 17.71396484 37.56683594 17.86542969 38.34179688 18.02148438 C43.2334119 18.93204475 47.1155508 18.9794845 52 18 C52.66 16.02 53.32 14.04 54 12 C55.32 12 56.64 12 58 12 C58.3984375 15.15234375 58.3984375 15.15234375 58 19 C55.87026454 21.26169314 54.11668013 22.80999384 51.625 24.5625 C50.98377197 25.03647217 50.34254395 25.51044434 49.68188477 25.9987793 C44.64553534 29.67160312 39.52048581 33.09448116 34 36 C32.59621094 36.75023437 32.59621094 36.75023437 31.1640625 37.515625 C18.88463829 43.63987183 4.76611854 47.7463246 -9 48 C-9.77182617 48.02433105 -10.54365234 48.04866211 -11.33886719 48.07373047 C-39.10792443 48.8964795 -67.84621438 42.38913742 -89.03515625 23.15234375 C-92.29402094 19.64694556 -93.75970965 16.92595218 -94 12 C-93.19949219 12.6496875 -93.19949219 12.6496875 -92.3828125 13.3125 C-87.41461757 17.02575296 -83.76571197 18.84929005 -77.5078125 18.4765625 C-73.34246216 17.68501617 -69.71156061 16.00818738 -66 14 C-66 15.98 -66 17.96 -66 20 C-63.24852219 19.54943049 -60.49906366 19.08988231 -57.75 18.625 C-56.58404297 18.43550781 -56.58404297 18.43550781 -55.39453125 18.2421875 C-54.64042969 18.11328125 -53.88632813 17.984375 -53.109375 17.8515625 C-52.41811523 17.73635254 -51.72685547 17.62114258 -51.01464844 17.50244141 C-48.67638967 16.9192935 -46.97877513 16.4006878 -45 15 C-44.29823412 12.58320293 -44.29823412 12.58320293 -44.25 9.875 C-44.16492188 8.50988281 -44.16492188 8.50988281 -44.078125 7.1171875 C-44.03945312 6.06917969 -44.03945312 6.06917969 -44 5 C-43.47156494 5.25168945 -42.94312988 5.50337891 -42.39868164 5.76269531 C-39.95385044 6.92631658 -37.50818061 8.08816513 -35.0625 9.25 C-34.23169922 9.64574219 -33.40089844 10.04148438 -32.54492188 10.44921875 C-30.86572033 11.24634944 -29.18421253 12.03863913 -27.50048828 12.82617188 C-25.85170713 13.60017498 -24.20919053 14.38768603 -22.57373047 15.18945312 C-21.80561035 15.55490234 -21.03749023 15.92035156 -20.24609375 16.296875 C-19.57118896 16.62526367 -18.89628418 16.95365234 -18.20092773 17.29199219 C-15.43337672 18.30623135 -15.43337672 18.30623135 -10 18 C-10 13.05 -10 8.1 -10 3 C-2.25 0 -2.25 0 0 0 Z " fill="#FBFBFC" transform="translate(146,192)"/>
<path d="M0 0 C0.99 0.165 1.98 0.33 3 0.5 C3.33 3.14 3.66 5.78 4 8.5 C3.071875 8.87125 3.071875 8.87125 2.125 9.25 C-0.12148298 10.30365805 -0.12148298 10.30365805 -0.88671875 12.37109375 C-7.59467301 25.19858523 -32.95999327 35.6546223 -46.234375 39.890625 C-47.73777665 40.34970872 -49.24300437 40.8028551 -50.75 41.25 C-51.45898438 41.46076172 -52.16796875 41.67152344 -52.8984375 41.88867188 C-60.37579783 44.02406036 -67.63135603 44.66386416 -75.37890625 44.703125 C-76.71259499 44.71167511 -76.71259499 44.71167511 -78.07322693 44.72039795 C-79.94992907 44.72980606 -81.82664741 44.73636518 -83.70336914 44.74023438 C-86.529765 44.74988819 -89.35541654 44.78093034 -92.18164062 44.8125 C-102.55975463 44.87358739 -111.95303278 44.3370142 -122 41.5 C-123.13078979 41.19376709 -123.13078979 41.19376709 -124.28442383 40.88134766 C-143.1033244 35.48288994 -159.2102704 25.07127016 -174 12.5 C-173.67 11.51 -173.34 10.52 -173 9.5 C-170.56640625 8.4375 -170.56640625 8.4375 -167.5625 7.5 C-162.97542442 6.16288003 -162.97542442 6.16288003 -160 2.5 C-156.77536577 3.94828485 -153.97180244 5.85787773 -151.07885742 7.8762207 C-125.88807279 25.34100762 -96.93069009 31.07377754 -66.6328125 26.24609375 C-47.1810228 22.2511563 -29.53998749 14.24589092 -14.37890625 1.25390625 C-10.10760252 -1.89521588 -4.99036583 -0.67683099 0 0 Z " fill="#020202" transform="translate(215,211.5)"/>
<path d="M0 0 C8.27428263 -0.57064018 15.1521357 1.50963557 23 4 C23.77085937 4.21527344 24.54171875 4.43054688 25.3359375 4.65234375 C48.78588372 11.52560385 72.95590719 29.36284574 84.8125 50.8125 C85.37710938 51.90691406 85.37710938 51.90691406 85.953125 53.0234375 C87.06578046 55.22355216 87.06578046 55.22355216 89.0625 57.9375 C93.50258773 64.95570319 95.8075234 73.04343168 98 81 C98.28101563 81.98355469 98.56203125 82.96710938 98.8515625 83.98046875 C99.12742187 84.99753906 99.40328125 86.01460938 99.6875 87.0625 C99.93886719 87.98160156 100.19023437 88.90070313 100.44921875 89.84765625 C101 93 101 93 101 102 C79.88 102 58.76 102 37 102 C37 101.67 37 101.34 37 101 C48.55 101 60.1 101 72 101 C67.59873158 70.06167198 61.85831388 38.99651156 36.4609375 17.83203125 C25.80647732 9.90037756 13.40366679 2.47610001 0 1 C0 0.67 0 0.34 0 0 Z " fill="#DA1717" transform="translate(137,18)"/>
<path d="M0 0 C6.81936371 5.05327101 12.83676722 11.74298299 14.359375 20.37109375 C15.16351603 31.05689095 13.72926219 39.2402434 6.89453125 47.63671875 C4.81782557 49.98292059 3.11252154 51.82664569 0.359375 53.37109375 C-3.453125 53.12109375 -3.453125 53.12109375 -6.640625 52.37109375 C-4.48608251 50.01392971 -2.44342626 48.58143231 0.421875 47.18359375 C1.11410156 46.83941406 1.80632812 46.49523437 2.51953125 46.140625 C4.359375 45.37109375 4.359375 45.37109375 6.359375 45.37109375 C5.8540625 44.70464844 5.34875 44.03820312 4.828125 43.3515625 C0.50382446 37.2168901 -1.24443242 33.3213859 -0.6875 25.82421875 C-0.62270091 22.4330663 -1.89148712 20.2134428 -3.640625 17.37109375 C-3.640625 16.71109375 -3.640625 16.05109375 -3.640625 15.37109375 C-4.754375 14.93796875 -4.754375 14.93796875 -5.890625 14.49609375 C-8.640625 13.37109375 -8.640625 13.37109375 -10.453125 12.24609375 C-14.69920393 10.54766218 -18.64257493 10.57329836 -22.83203125 12.24609375 C-26.46286428 14.27882532 -28.40514934 15.99580442 -30.640625 19.55859375 C-32.04896291 24.92788202 -32.96726391 30.14048233 -30.796875 35.42578125 C-27.78590825 40.16601944 -23.76154684 42.32526641 -18.640625 44.37109375 C-20.4296875 48.19140625 -20.4296875 48.19140625 -22.328125 49.80859375 C-22.9778125 50.58203125 -22.9778125 50.58203125 -23.640625 51.37109375 C-23.41018636 54.02575424 -23.41018636 54.02575424 -22.640625 56.37109375 C-24.26953125 57.20703125 -24.26953125 57.20703125 -26.640625 57.37109375 C-28.80231467 55.64055264 -30.65646774 53.96333339 -32.578125 51.99609375 C-36.10567649 48.41085903 -38.55131762 46.17096762 -43.640625 45.37109375 C-44.96875 43.8828125 -44.96875 43.8828125 -45.890625 42.05859375 C-46.20515625 41.46433594 -46.5196875 40.87007812 -46.84375 40.2578125 C-49.87904253 33.07131107 -49.68140211 23.72086664 -47.44921875 16.30078125 C-43.86537311 7.74802885 -37.72182073 1.36901656 -29.4140625 -2.7265625 C-19.62836546 -6.44374424 -8.90749687 -5.49471331 0 0 Z " fill="#F7F7F7" transform="translate(144.640625,100.62890625)"/>
<path d="M0 0 C1.30324219 -0.06864258 1.30324219 -0.06864258 2.6328125 -0.13867188 C8.61099665 -0.24189878 11.9478044 0.94628683 16.56738281 4.74975586 C19.68137671 7.87323813 21.67938759 10.17700143 21.6875 14.6875 C21.34123573 23.15019869 16.90573214 28.22810243 11.0546875 33.96875 C9.25 35.4375 9.25 35.4375 7.25 35.4375 C7.6109375 36.67886719 7.971875 37.92023438 8.34375 39.19921875 C8.81284396 40.8410476 9.28157492 42.48298019 9.75 44.125 C9.98847656 44.94162109 10.22695313 45.75824219 10.47265625 46.59960938 C11.61464868 50.62921125 12.59500623 54.20254847 12.25 58.4375 C9.28 59.4275 6.31 60.4175 3.25 61.4375 C1.32905692 57.33858626 -0.58462092 53.23634049 -2.49462891 49.13232422 C-3.41491695 47.1568012 -4.33667629 45.1819634 -5.25927734 43.20751953 C-6.90581349 39.68176841 -8.54700526 36.15356563 -10.1875 32.625 C-11.00395996 30.88017334 -11.00395996 30.88017334 -11.83691406 29.10009766 C-12.34319336 28.00874512 -12.84947266 26.91739258 -13.37109375 25.79296875 C-13.8292749 24.80965576 -14.28745605 23.82634277 -14.75952148 22.81323242 C-15.75 20.4375 -15.75 20.4375 -15.75 18.4375 C-16.74 19.0975 -17.73 19.7575 -18.75 20.4375 C-19.74 20.4375 -20.73 20.4375 -21.75 20.4375 C-23.390625 18.35546875 -23.390625 18.35546875 -25 15.625 C-25.54140625 14.73167969 -26.0828125 13.83835938 -26.640625 12.91796875 C-27.75 10.4375 -27.75 10.4375 -26.75 7.4375 C-23.94921875 5.8671875 -23.94921875 5.8671875 -20.4375 4.3125 C-19.28636719 3.79429687 -18.13523437 3.27609375 -16.94921875 2.7421875 C-11.23396719 0.41142557 -6.12038528 0.12936674 0 0 Z " fill="#F9C807" transform="translate(36.75,154.5625)"/>
<path d="M0 0 C21.78 0 43.56 0 66 0 C66 12.50769231 66 12.50769231 64.6875 17.125 C64.44386719 18.03507812 64.20023437 18.94515625 63.94921875 19.8828125 C63.63597656 20.58148438 63.32273437 21.28015625 63 22 C61.515 22.495 61.515 22.495 60 23 C60 22.34 60 21.68 60 21 C58.96875 20.896875 57.9375 20.79375 56.875 20.6875 C51.61288915 20.05792602 46.51165409 18.77231692 41.3671875 17.5234375 C37.55844884 16.75090519 37.55844884 16.75090519 32 18 C32 22.29 32 26.58 32 31 C28.04 31.66 24.08 32.32 20 33 C17.85563388 25.85211293 16.95409856 19.45898341 17 12 C14.24968413 12.14111883 11.49984582 12.28771165 8.75 12.4375 C7.97269531 12.47681641 7.19539062 12.51613281 6.39453125 12.55664062 C5.26337891 12.61948242 5.26337891 12.61948242 4.109375 12.68359375 C3.07248535 12.73858032 3.07248535 12.73858032 2.01464844 12.79467773 C-0.35620639 12.9878141 -0.35620639 12.9878141 -4 14 C-2.68 9.38 -1.36 4.76 0 0 Z " fill="#FBFCFC" transform="translate(173,136)"/>
<path d="M0 0 C21.12 0 42.24 0 64 0 C69 12 69 12 69 15 C68.31292969 15.19335938 67.62585938 15.38671875 66.91796875 15.5859375 C66.01691406 15.84632813 65.11585937 16.10671875 64.1875 16.375 C62.84751953 16.75785156 62.84751953 16.75785156 61.48046875 17.1484375 C58.79532104 17.95266661 58.79532104 17.95266661 56 20 C55.63501966 22.89608399 55.63501966 22.89608399 55.8125 26.125 C55.83957031 27.22070312 55.86664063 28.31640625 55.89453125 29.4453125 C55.94673828 30.70988281 55.94673828 30.70988281 56 32 C57.32 32 58.64 32 60 32 C60 32.66 60 33.32 60 34 C58.98679687 34.19916016 58.98679687 34.19916016 57.953125 34.40234375 C57.06109375 34.57894531 56.1690625 34.75554687 55.25 34.9375 C54.36828125 35.11152344 53.4865625 35.28554687 52.578125 35.46484375 C50.36764947 35.92368488 48.18487932 36.43336074 46 37 C45.90203125 36.34773438 45.8040625 35.69546875 45.703125 35.0234375 C44.5048531 28.01974485 42.92255905 23.33804724 37.1875 18.75 C31.34166283 15.54052077 25.72326659 14.66092022 19.125 14.75 C18.07989258 14.75580078 18.07989258 14.75580078 17.01367188 14.76171875 C11.74005612 14.85002115 7.0556969 15.55551517 2 17 C-0.17232578 10.75456339 0 7.17123033 0 0 Z " fill="#F6F7F7" transform="translate(17,136)"/>
<path d="M0 0 C1.54238266 0.11583111 3.08390272 0.24316572 4.625 0.375 C5.91277344 0.47941406 5.91277344 0.47941406 7.2265625 0.5859375 C13.19115434 1.47642586 13.19115434 1.47642586 16 3 C17.3269549 5.89581072 17.80142672 8.87058444 18.3125 12 C18.61955509 13.64612109 18.92808 15.29196889 19.23828125 16.9375 C19.36243408 17.66839844 19.48658691 18.39929688 19.61450195 19.15234375 C19.93543534 21.08345855 19.93543534 21.08345855 21 23 C22.32 17.39 23.64 11.78 25 6 C28.96 6.33 32.92 6.66 37 7 C35.67515899 13.32755156 34.03946176 19.43982015 32.06640625 25.59375 C31.78780258 26.4664856 31.50919891 27.33922119 31.22215271 28.23840332 C30.63697333 30.06429643 30.04946656 31.88944515 29.4597168 33.71386719 C28.55715654 36.51659309 27.67210492 39.32449838 26.78710938 42.1328125 C26.21460975 43.91180241 25.64107929 45.69046099 25.06640625 47.46875 C24.6725045 48.73108459 24.6725045 48.73108459 24.27064514 50.0189209 C23.60490395 52.04487018 22.81303004 54.0285376 22 56 C19 57 19 57 13 55 C12.34 48.07 11.68 41.14 11 34 C10.34 38.29 9.68 42.58 9 47 C5.16380575 47.95904856 3.67568464 47.91892116 0 47 C-0.6193969 39.81499593 -0.6193969 39.81499593 2.375 35.875 C3.24125 34.92625 4.1075 33.9775 5 33 C7.46909311 27.94958227 7.25247685 23.37062075 6 18 C5.01810813 16.32260138 4.01866229 14.65532623 3 13 C2.65234375 10.95703125 2.65234375 10.95703125 2.4375 8.75 C2.293125 7.5125 2.14875 6.275 2 5 C1.34 4.67 0.68 4.34 0 4 C0 2.68 0 1.36 0 0 Z " fill="#FBC906" transform="translate(213,158)"/>
<path d="M0 0 C0.66 3.96 1.32 7.92 2 12 C4.97 8.04 7.94 4.08 11 0 C14.91389179 2.34833507 16.64704042 3.4021661 19.3125 6.6875 C20.02442505 7.56498901 20.02442505 7.56498901 20.75073242 8.46020508 C21.16299072 8.9683374 21.57524902 9.47646973 22 10 C20.60974609 11.37285156 20.60974609 11.37285156 19.19140625 12.7734375 C17.98163961 13.9738261 16.77201135 15.17435417 15.5625 16.375 C14.95083984 16.97828125 14.33917969 17.5815625 13.70898438 18.203125 C13.12568359 18.78320312 12.54238281 19.36328125 11.94140625 19.9609375 C11.40201416 20.49509277 10.86262207 21.02924805 10.30688477 21.57958984 C8.89153023 22.98652388 8.89153023 22.98652388 8 25 C8.6290625 25.13535156 9.258125 25.27070313 9.90625 25.41015625 C15.96711017 26.93449909 19.56426648 28.98065019 24.05078125 33.28515625 C27.81856215 36.59989736 32.28276873 38.42758958 37 40 C37 42.97 37 45.94 37 49 C32.5251617 47.61902341 28.46797526 45.85081321 24.2890625 43.7421875 C23.67606293 43.43427277 23.06306335 43.12635803 22.43148804 42.80911255 C20.49406342 41.83484937 18.5595124 40.85503083 16.625 39.875 C15.30357212 39.2092647 13.98195924 38.54389647 12.66015625 37.87890625 C9.43795475 36.25684177 6.21830407 34.62978626 3 33 C3.01160156 34.21558594 3.02320312 35.43117187 3.03515625 36.68359375 C3.04453278 38.26822764 3.05363313 39.85286318 3.0625 41.4375 C3.07087891 42.23994141 3.07925781 43.04238281 3.08789062 43.86914062 C3.0965143 45.91295221 3.0522815 47.95683902 3 50 C2 51 2 51 -0.06640625 51.09765625 C-0.89011719 51.08605469 -1.71382812 51.07445312 -2.5625 51.0625 C-3.38878906 51.05347656 -4.21507813 51.04445312 -5.06640625 51.03515625 C-5.70449219 51.02355469 -6.34257813 51.01195312 -7 51 C-7.16354221 46.09373356 -7.20658213 43.37056616 -5 39 C-4.14171045 32.96967993 -5.21816128 28.34113033 -8 23 C-8.33 22.67 -8.66 22.34 -9 22 C-9.23653523 19.47403741 -9.42173692 16.96892793 -9.5625 14.4375 C-9.60568359 13.72658203 -9.64886719 13.01566406 -9.69335938 12.28320312 C-9.79971777 10.52238088 -9.90038846 8.7612168 -10 7 C-11.32 7 -12.64 7 -14 7 C-13.8046875 5.109375 -13.8046875 5.109375 -13 3 C-10.8203125 1.953125 -10.8203125 1.953125 -8.125 1.25 C-7.24070312 1.00765625 -6.35640625 0.7653125 -5.4453125 0.515625 C-3 0 -3 0 0 0 Z " fill="#F6C609" transform="translate(95,153)"/>
<path d="M0 0 C2.05078125 0.03255208 4.1015625 0.06510417 6.15234375 0.09765625 C6.68429687 2.99184185 7.2032071 5.8873714 7.71484375 8.78515625 C7.94204102 10.01008789 7.94204102 10.01008789 8.17382812 11.25976562 C9.20632192 17.19060208 9.04484252 21.29722425 6.58984375 26.84765625 C4.89617165 31.29144939 4.35824322 35.38541132 5.15234375 40.09765625 C6.899553 43.4672741 8.37512637 45.51474322 11.40234375 47.78515625 C11.97984375 48.21828125 12.55734375 48.65140625 13.15234375 49.09765625 C13.15234375 50.08765625 13.15234375 51.07765625 13.15234375 52.09765625 C9.52234375 51.76765625 5.89234375 51.43765625 2.15234375 51.09765625 C0.66734375 41.69265625 0.66734375 41.69265625 -0.84765625 32.09765625 C-2.16765625 35.06765625 -3.48765625 38.03765625 -4.84765625 41.09765625 C-8.27697579 37.34173485 -9.41194708 32.8629888 -10.84765625 28.09765625 C-11.50765625 28.09765625 -12.16765625 28.09765625 -12.84765625 28.09765625 C-12.90824219 29.01289063 -12.96882812 29.928125 -13.03125 30.87109375 C-13.11503906 32.05960938 -13.19882813 33.248125 -13.28515625 34.47265625 C-13.36636719 35.65601563 -13.44757813 36.839375 -13.53125 38.05859375 C-13.84765625 41.09765625 -13.84765625 41.09765625 -14.84765625 43.09765625 C-18.47765625 42.76765625 -22.10765625 42.43765625 -25.84765625 42.09765625 C-25.35534856 33.72842548 -25.35534856 33.72842548 -22.78515625 30.53515625 C-22.14578125 30.06078125 -21.50640625 29.58640625 -20.84765625 29.09765625 C-21.18152344 28.51886719 -21.51539063 27.94007813 -21.859375 27.34375 C-24.85766144 20.52946263 -20.5355558 9.96602739 -18.84765625 3.09765625 C-15.21765625 3.09765625 -11.58765625 3.09765625 -7.84765625 3.09765625 C-7.359375 5.40885417 -6.87109375 7.72005208 -6.3828125 10.03125 C-6.04012631 12.07426829 -6.04012631 12.07426829 -4.84765625 13.09765625 C-4.71488281 12.24300781 -4.58210938 11.38835937 -4.4453125 10.5078125 C-4.26871094 9.40308594 -4.09210938 8.29835937 -3.91015625 7.16015625 C-3.64912109 5.50693359 -3.64912109 5.50693359 -3.3828125 3.8203125 C-2.65953404 0.14056734 -2.65953404 0.14056734 0 0 Z " fill="#F8C707" transform="translate(179.84765625,151.90234375)"/>
<path d="M0 0 C4.53512098 2.78060095 6.86879474 5.86041309 8.25 11 C8.52809849 13.76684429 8.44939648 16.20844922 8.25 19 C7.26 19 6.27 19 5.25 19 C0.66009993 20.28279921 -1.19523678 22.47106559 -4.0625 26.1875 C-8.07967475 30.81293249 -8.07967475 30.81293249 -10.93359375 31.609375 C-14.75713534 31.29134886 -16.57869899 30.1408475 -19.5625 27.6875 C-20.284375 26.800625 -21.00625 25.91375 -21.75 25 C-22.28238281 24.38382813 -22.81476563 23.76765625 -23.36328125 23.1328125 C-25.81765502 19.3579165 -25.23847415 15.34273591 -24.75 11 C-23.5130279 5.9274555 -21.11201705 2.87254781 -16.75 0 C-16.151875 -0.4125 -15.55375 -0.825 -14.9375 -1.25 C-9.47389663 -3.12323544 -5.0664227 -2.47895806 0 0 Z " fill="#0E0510" transform="translate(136.75,113)"/>
<path d="M0 0 C1.93673876 1.21433176 3.77428094 2.47113366 5.57421875 3.87890625 C4.04862815 7.53031981 1.84940966 9.78008737 -0.98828125 12.50390625 C-4.11620179 15.38961306 -4.11620179 15.38961306 -6.42578125 18.87890625 C-2.49502481 18.30437879 -2.49502481 18.30437879 0.57421875 15.87890625 C4.36325583 16.13150872 6.11608468 18.15740068 8.57421875 20.87890625 C7.29590442 24.85588416 4.89297143 26.12999232 1.42578125 28.046875 C-4.21768697 30.58286388 -10.35623795 30.45657056 -16.42578125 29.87890625 C-21.30573257 27.61321456 -24.0581786 24.70517319 -26.42578125 19.87890625 C-27.2555653 15.16268465 -26.91980648 11.84865948 -24.73828125 7.56640625 C-18.44028789 0.24711667 -9.50916291 -4.39473391 0 0 Z " fill="#F6C609" transform="translate(144.42578125,158.12109375)"/>
<path d="M0 0 C3.80018491 1.61709996 5.79721511 3.54814993 8 7 C8.89414126 11.80903002 8.62568087 16.5213303 6.3125 20.875 C2.9447425 25.42602365 -0.5078279 28.43080797 -6 30 C-10.24450609 30.46303703 -12.43631522 30.29268248 -16.25 28.3125 C-19.66416328 25.44149906 -21.63961069 23.4025954 -22.31640625 18.890625 C-22.6013363 13.41261508 -21.67642069 10.25690817 -18 6 C-12.07523042 0.42285721 -8.03664901 -0.70986174 0 0 Z " fill="#F9C808" transform="translate(79,174)"/>
<path d="M0 0 C3.57073204 2.20321764 5.42512751 4.15109639 7 8 C7.45845014 13.08115571 6.25620777 17.19955987 3.375 21.375 C-0.52907556 26.05243659 -4.53966801 27.69785397 -10.5625 28.4375 C-14.72777352 27.90737428 -16.79727658 26.68134984 -20 24 C-22.57674863 19.79629405 -22.66949622 15.8036354 -22 11 C-17.33002296 1.66004591 -10.12749693 -2.31383937 0 0 Z " fill="#F8C707" transform="translate(210,171)"/>
<path d="M0 0 C21.78 0 43.56 0 66 0 C66 12.50769231 66 12.50769231 64.6875 17.125 C64.44386719 18.03507812 64.20023437 18.94515625 63.94921875 19.8828125 C63.63597656 20.58148438 63.32273438 21.28015625 63 22 C62.01 22.33 61.02 22.66 60 23 C60 22.34 60 21.68 60 21 C58.865625 20.87753906 57.73125 20.75507813 56.5625 20.62890625 C51.95471114 20.05293264 47.50580537 19.04247653 43 17.9375 C42.22527344 17.75123047 41.45054687 17.56496094 40.65234375 17.37304688 C38.76729241 16.91923822 36.8835073 16.46017508 35 16 C35.33 11.05 35.66 6.1 36 1 C24.45 1 12.9 1 1 1 C0.67 1.99 0.34 2.98 0 4 C0 2.68 0 1.36 0 0 Z " fill="#D9D9D9" transform="translate(173,136)"/>
<path d="M0 0 C1.32 0 2.64 0 4 0 C4.3984375 3.15234375 4.3984375 3.15234375 4 7 C1.87026454 9.26169314 0.11668013 10.80999384 -2.375 12.5625 C-3.33684204 13.27345825 -3.33684204 13.27345825 -4.31811523 13.9987793 C-9.35446466 17.67160312 -14.47951419 21.09448116 -20 24 C-21.40378906 24.75023437 -21.40378906 24.75023437 -22.8359375 25.515625 C-29.35413722 28.76651554 -35.85337035 30.99266913 -42.875 32.875 C-44.06984009 33.19803101 -44.06984009 33.19803101 -45.28881836 33.52758789 C-49.99256107 34.71868977 -54.15021265 35.21985703 -59 35 C-56.65544244 32.65544244 -54.85757576 32.13002755 -51.75 31 C-41.89294192 26.95577641 -33.48381144 20.99812682 -26.50927734 12.96240234 C-20.72221262 6.36284389 -20.72221262 6.36284389 -17.05322266 5.58984375 C-12.59292376 5.39578014 -8.38468045 6.22062585 -4 7 C-1.64214682 6.10664203 -1.64214682 6.10664203 -0.875 2.9375 C-0.58625 1.968125 -0.2975 0.99875 0 0 Z " fill="#DBDBDB" transform="translate(200,204)"/>
<path d="M0 0 C0.66 0 1.32 0 2 0 C3.14501953 1.52880859 3.14501953 1.52880859 4.3828125 3.6484375 C5.04990234 4.78539062 5.04990234 4.78539062 5.73046875 5.9453125 C6.42076172 7.14800781 6.42076172 7.14800781 7.125 8.375 C7.59292969 9.1690625 8.06085937 9.963125 8.54296875 10.78125 C12 16.7277469 12 16.7277469 12 19 C13.98 18.67 15.96 18.34 18 18 C22.98375636 28.34590903 27.93512787 38.70438344 32.625 49.1875 C32.96724609 49.94659668 33.30949219 50.70569336 33.66210938 51.48779297 C36 56.75776783 36 56.75776783 36 59 C37.65 59 39.3 59 41 59 C38.94062659 61.78621109 37.9159471 62.01387281 34.37890625 62.59765625 C32.70634766 62.79681641 32.70634766 62.79681641 31 63 C30.74420166 62.37657715 30.48840332 61.7531543 30.22485352 61.11083984 C25.48372629 49.6472188 20.78339136 38.7134618 13.6171875 28.546875 C12 26 12 26 12 23 C11.01 23.33 10.02 23.66 9 24 C7.31151471 21.30471044 5.65339583 18.59193153 4 15.875 C3.52304688 15.11445313 3.04609375 14.35390625 2.5546875 13.5703125 C-0.04416407 9.26364418 -1.77776818 6.20132467 -1 1 C-0.67 0.67 -0.34 0.34 0 0 Z " fill="#1B3466" transform="translate(1,162)"/>
<path d="M0 0 C3.79322369 1.61413774 5.81893664 3.5384809 8 7 C8.36328125 9.47265625 8.36328125 9.47265625 8.3125 12.0625 C8.30863281 12.91972656 8.30476563 13.77695313 8.30078125 14.66015625 C8 17 8 17 6 20 C5.93941406 19.24074219 5.87882812 18.48148438 5.81640625 17.69921875 C5.69072266 16.20841797 5.69072266 16.20841797 5.5625 14.6875 C5.48128906 13.70136719 5.40007812 12.71523437 5.31640625 11.69921875 C5.08187441 8.90624401 5.08187441 8.90624401 4 6 C3.34 6 2.68 6 2 6 C2.103125 7.0725 2.20625 8.145 2.3125 9.25 C2 13 2 13 -0.0625 15.5 C-3.91260646 17.46601181 -5.89200092 17.21718491 -10 16 C-12.36647789 13.8625361 -12.91839274 12.65285807 -13.3125 9.5 C-13 7 -13 7 -11 3 C-13.31 4.98 -15.62 6.96 -18 9 C-18.66 8.67 -19.32 8.34 -20 8 C-18.71064081 6.85157077 -17.41843421 5.70633773 -16.125 4.5625 C-15.04605469 3.60537109 -15.04605469 3.60537109 -13.9453125 2.62890625 C-9.72901489 -0.90160801 -5.28990717 -0.46724732 0 0 Z " fill="#F0C20B" transform="translate(79,174)"/>
<path d="M0 0 C0.66 0 1.32 0 2 0 C2 5.28 2 10.56 2 16 C1.67 16 1.34 16 1 16 C0.67 13.36 0.34 10.72 0 8 C-0.66 12.29 -1.32 16.58 -2 21 C-5.83619425 21.95904856 -7.32431536 21.91892116 -11 21 C-11.6045009 13.98778952 -11.6045009 13.98778952 -9.921875 11.23828125 C-8.65308695 9.790842 -7.32826569 8.39305914 -6 7 C-5.67 6.01 -5.34 5.02 -5 4 C-3.66666667 3.66666667 -2.33333333 3.33333333 -1 3 C-0.67 2.01 -0.34 1.02 0 0 Z " fill="#F8C709" transform="translate(224,184)"/>
<path d="M0 0 C0.99 0 1.98 0 3 0 C3.33 1.98 3.66 3.96 4 6 C8.29 6.66 12.58 7.32 17 8 C17.33 9.98 17.66 11.96 18 14 C18.92683594 14.26554688 19.85367188 14.53109375 20.80859375 14.8046875 C22.00613281 15.15789062 23.20367187 15.51109375 24.4375 15.875 C25.63246094 16.22304687 26.82742187 16.57109375 28.05859375 16.9296875 C31 18 31 18 32 20 C28.91632596 21.61878637 27.42423396 22.08495571 23.95703125 21.390625 C22.91933594 21.01421875 21.88164062 20.6378125 20.8125 20.25 C19.76707031 19.88390625 18.72164062 19.5178125 17.64453125 19.140625 C15 18 15 18 13 16 C13 14.02 13 12.04 13 10 C6.07 9.505 6.07 9.505 -1 9 C-0.67 6.03 -0.34 3.06 0 0 Z " fill="#1C2D5D" transform="translate(205,202)"/>
<path d="M0 0 C7.25581395 -0.48372093 7.25581395 -0.48372093 10.5 1.625 C12.5246352 4.83067239 12.73327091 6.26031834 12 10 C10.21842286 12.55908624 8.19579737 14.7911324 6 17 C5.01 16.67 4.02 16.34 3 16 C1.796875 13.1640625 1.796875 13.1640625 0.75 9.625 C0.39421875 8.46226562 0.0384375 7.29953125 -0.328125 6.1015625 C-1 3 -1 3 0 0 Z " fill="#3E6BA6" transform="translate(38,168)"/>
<path d="M0 0 C11.28688844 4.86124863 22.25110233 10.0389594 33 16 C32.67 16.66 32.34 17.32 32 18 C25.08008053 17.10112519 19.43523672 14.22342711 13.1875 11.25 C12.03056641 10.7240625 10.87363281 10.198125 9.68164062 9.65625 C8.58400391 9.13546875 7.48636719 8.6146875 6.35546875 8.078125 C5.35153076 7.60793945 4.34759277 7.13775391 3.31323242 6.65332031 C1 5 1 5 0.1652832 2.30761719 C0.08346802 1.16534668 0.08346802 1.16534668 0 0 Z " fill="#234578" transform="translate(102,193)"/>
<path d="M0 0 C0.66 0 1.32 0 2 0 C3.14501953 1.52880859 3.14501953 1.52880859 4.3828125 3.6484375 C5.04990234 4.78539062 5.04990234 4.78539062 5.73046875 5.9453125 C6.42076172 7.14800781 6.42076172 7.14800781 7.125 8.375 C7.59292969 9.1690625 8.06085937 9.963125 8.54296875 10.78125 C12 16.7277469 12 16.7277469 12 19 C12.99 19 13.98 19 15 19 C14.67 19.99 14.34 20.98 14 22 C11.4375 23.1875 11.4375 23.1875 9 24 C7.31151471 21.30471044 5.65339583 18.59193153 4 15.875 C3.52304688 15.11445313 3.04609375 14.35390625 2.5546875 13.5703125 C-0.04416407 9.26364418 -1.77776818 6.20132467 -1 1 C-0.67 0.67 -0.34 0.34 0 0 Z " fill="#104986" transform="translate(1,162)"/>
<path d="M0 0 C1.25248535 -0.04640625 1.25248535 -0.04640625 2.53027344 -0.09375 C9.0763733 -0.0417349 13.05112572 2.11495648 17.6875 6.6875 C20.82578028 10.49505188 21.07747981 12.65380172 20.92578125 17.4921875 C20.63764607 20.14681001 19.91057695 22.3177884 18.6875 24.6875 C17.6875 21.6875 17.6875 21.6875 17.875 17.875 C17.93182785 13.45866436 16.54557833 11.10131578 13.6875 7.6875 C8.69429074 3.16240411 3.28015447 3.4791257 -3.125 3.4375 C-3.90681641 3.416875 -4.68863281 3.39625 -5.49414062 3.375 C-9.46213973 3.34848037 -12.51514189 3.56930892 -16.13671875 5.265625 C-19.3125 6.6875 -19.3125 6.6875 -21.75 6.375 C-22.265625 6.148125 -22.78125 5.92125 -23.3125 5.6875 C-15.53899595 1.71563662 -8.65565835 0.14110744 0 0 Z " fill="#C4A112" transform="translate(37.3125,154.3125)"/>
<path d="M0 0 C0.639375 0.804375 1.27875 1.60875 1.9375 2.4375 C3.40603502 4.2750504 3.40603502 4.2750504 5 6 C5.99 5.01 6.98 4.02 8 3 C8.33 5.64 8.66 8.28 9 11 C18.405 12.485 18.405 12.485 28 14 C27.67 14.99 27.34 15.98 27 17 C6.49269311 15.49269311 6.49269311 15.49269311 4 13 C3.95936168 11.33382885 3.957279 9.66611905 4 8 C3.0409375 8.2784375 3.0409375 8.2784375 2.0625 8.5625 C1.381875 8.706875 0.70125 8.85125 0 9 C-0.33 8.67 -0.66 8.34 -1 8 C-0.82364548 5.30917128 -0.38164079 2.67148554 0 0 Z " fill="#2D3E6C" transform="translate(169,195)"/>
<path d="M0 0 C0.33 0 0.66 0 1 0 C1.08636719 0.58007812 1.17273437 1.16015625 1.26171875 1.7578125 C2.31181017 7.59593543 3.73838045 10.83984758 8 15 C11.52936072 17.33444263 14.58838301 17.20823234 18.75 17.125 C19.92046875 17.10695312 21.0909375 17.08890625 22.296875 17.0703125 C23.63492188 17.03550781 23.63492188 17.03550781 25 17 C22.46274815 19.77889489 20.55547376 20.83668864 16.73046875 21.23828125 C9.45515445 21.45061761 6.08158122 19.83172328 0.6875 14.875 C-1.68532521 10.8324089 -2.24815424 6.67357152 -2 2 C-1.34 1.34 -0.68 0.68 0 0 Z " fill="#214376" transform="translate(52,190)"/>
<path d="M0 0 C0.66 0.33 1.32 0.66 2 1 C0.47987323 6.40489519 -3.27385218 9.98492628 -7 14 C-8.93359375 13.20703125 -8.93359375 13.20703125 -11 12 C-12.0625 8.6875 -12.0625 8.6875 -12 5 C-8.61156633 0.02323805 -5.85896422 -0.66327897 0 0 Z " fill="#436A99" transform="translate(138,164)"/>
<path d="M0 0 C-0.99 0.495 -0.99 0.495 -2 1 C-2 2.65 -2 4.3 -2 6 C0.91634129 6.2502157 0.91634129 6.2502157 4 6 C4.66 5.01 5.32 4.02 6 3 C6.75 5.1875 6.75 5.1875 7 8 C5.5 10.8125 5.5 10.8125 3 13 C-0.66148608 13.52306944 -3.01626965 13.40358168 -6.4375 12 C-8.55097625 9.29475039 -8.62253896 7.25389052 -8.4609375 3.87890625 C-8 2 -8 2 -5.6875 -0.0625 C-3 -1 -3 -1 0 0 Z " fill="#466D9E" transform="translate(204,174)"/>
<path d="M0 0 C0.99 0.33 1.98 0.66 3 1 C2.01 1.495 2.01 1.495 1 2 C1.33 3.65 1.66 5.3 2 7 C5.71736641 7.34900558 5.71736641 7.34900558 8.8125 5.5 C9.204375 5.005 9.59625 4.51 10 4 C10.3125 6.75 10.3125 6.75 10 10 C7.9375 12.4375 7.9375 12.4375 5 14 C1.15050705 14 -1.04133185 13.86589381 -3.9375 11.25 C-5.24693207 8.47708502 -5.60496057 7.02480283 -5 4 C-2.6875 1.625 -2.6875 1.625 0 0 Z " fill="#3D69A5" transform="translate(71,177)"/>
<path d="M0 0 C7.37441764 2.40638892 13.11190443 4.42708896 18.234375 10.3515625 C21.51982813 13.41895458 25.78561862 14.63477786 30 16 C30 18.97 30 21.94 30 25 C29.34 25 28.68 25 28 25 C28 22.69 28 20.38 28 18 C26.845 17.814375 25.69 17.62875 24.5 17.4375 C20.91172478 16.55452128 18.95906769 15.30627967 16.3125 12.75 C11.32601374 7.98335882 5.30027495 5.6219132 -1 3 C-0.67 2.01 -0.34 1.02 0 0 Z " fill="#C5A00D" transform="translate(102,177)"/>
<path d="M0 0 C1.54238266 0.11583111 3.08390272 0.24316572 4.625 0.375 C5.91277344 0.47941406 5.91277344 0.47941406 7.2265625 0.5859375 C8.59941406 0.79089844 8.59941406 0.79089844 10 1 C11.0415625 1.0928125 12.083125 1.185625 13.15625 1.28125 C16 3 16 3 16.94287109 5.41259766 C17.72641223 8.63763012 18.32879129 11.85148892 18.875 15.125 C19.08640625 16.26066406 19.2978125 17.39632812 19.515625 18.56640625 C20.03469985 21.3741293 20.5282404 24.1840068 21 27 C20.01 27.33 19.02 27.66 18 28 C16.35 20.41 14.7 12.82 13 5 C8.71 4.01 4.42 3.02 0 2 C0 1.34 0 0.68 0 0 Z " fill="#BD9E16" transform="translate(213,158)"/>
<path d="M0 0 C3.96 0.33 7.92 0.66 12 1 C10.67786336 7.36243391 9.00059854 13.46236277 6.9609375 19.62890625 C6.67521881 20.50401352 6.38950012 21.37912079 6.09512329 22.28074646 C5.19237753 25.0426469 4.28379649 27.80258538 3.375 30.5625 C2.75742376 32.44844045 2.14023261 34.33450706 1.5234375 36.22070312 C0.0200699 40.81527145 -1.48852976 45.40809114 -3 50 C-3.99 50 -4.98 50 -6 50 C-5.58113525 48.78417236 -5.16227051 47.56834473 -4.73071289 46.31567383 C-3.17507325 41.7974119 -1.62365028 37.27771156 -0.07348633 32.75756836 C0.59756689 30.80274705 1.26975756 28.84831582 1.94311523 26.89428711 C2.91169933 24.08289137 3.87616213 21.27011063 4.83984375 18.45703125 C5.14091537 17.58601273 5.441987 16.7149942 5.75218201 15.81758118 C7.08957769 11.90166911 8.35005376 8.10163812 9 4 C4.545 3.01 4.545 3.01 0 2 C0 1.34 0 0.68 0 0 Z " fill="#CCA60F" transform="translate(238,164)"/>
<path d="M0 0 C-0.33 2.64 -0.66 5.28 -1 8 C0.58941406 8.18175781 0.58941406 8.18175781 2.2109375 8.3671875 C3.59901324 8.53600752 4.98703119 8.70530308 6.375 8.875 C7.42300781 8.99294922 7.42300781 8.99294922 8.4921875 9.11328125 C13.7734375 9.7734375 13.7734375 9.7734375 16 12 C15.67 12.33 15.34 12.66 15 13 C12.76827867 12.93496971 10.53852364 12.79712722 8.3125 12.625 C7.09175781 12.53476563 5.87101563 12.44453125 4.61328125 12.3515625 C1.37025696 12.036025 -1.79524986 11.58089173 -5 11 C-4.67 7.7 -4.34 4.4 -4 1 C-1 0 -1 0 0 0 Z " fill="#365280" transform="translate(150,189)"/>
<path d="M0 0 C3.41158256 1.13719419 4.11854601 2.04342944 6 5 C6 5.66 6 6.32 6 7 C3.87717331 8.00460531 1.75166979 9.00355602 -0.375 10 C-2.15003906 10.8353125 -2.15003906 10.8353125 -3.9609375 11.6875 C-7 13 -7 13 -9 13 C-8.4352699 9.09170915 -6.57868029 7.10079777 -3.9375 4.25 C-3.20402344 3.45078125 -2.47054687 2.6515625 -1.71484375 1.828125 C-1.14894531 1.22484375 -0.58304688 0.6215625 0 0 Z " fill="#F2C50E" transform="translate(140,138)"/>
<path d="M0 0 C3.55587342 2.19404956 5.46679155 4.14247554 7 8 C7.046875 10.2890625 7.046875 10.2890625 6.75 12.625 C6.66234375 13.40101563 6.5746875 14.17703125 6.484375 14.9765625 C6 17 6 17 4 19 C4.06960937 18.12988281 4.06960937 18.12988281 4.140625 17.2421875 C4.33633759 13.00640782 4.19362602 10.41704065 2.375 6.5 C-0.56512627 3.40513024 -1.77556034 3.15941282 -6 3 C-9.002399 2.94594699 -11.99771587 2.93995432 -15 3 C-10.60409168 -1.81456626 -5.99873913 -1.37053794 0 0 Z " fill="#C0A016" transform="translate(210,171)"/>
<path d="M0 0 C4.21806576 0.09116857 6.87830527 0.50469841 10.1875 3.3125 C12.92691686 6.36442315 13.58013978 8.28787141 13.5 12.375 C13.49613281 13.23222656 13.49226563 14.08945313 13.48828125 14.97265625 C13.1875 17.3125 13.1875 17.3125 11.1875 20.3125 C11.17332031 19.57644531 11.15914062 18.84039062 11.14453125 18.08203125 C10.88633426 11.65714777 10.88633426 11.65714777 7.75 6.1875 C4.30342444 3.66561544 2.2698309 3.12758098 -1.9375 2.75 C-2.84757812 2.66621094 -3.75765625 2.58242187 -4.6953125 2.49609375 C-5.39398438 2.43550781 -6.09265625 2.37492188 -6.8125 2.3125 C-4.32244323 -0.17755677 -3.43779268 0.01546234 0 0 Z " fill="#C29F11" transform="translate(73.8125,173.6875)"/>
<path d="M0 0 C0.33 0.66 0.66 1.32 1 2 C0.67 2.99 0.34 3.98 0 5 C-0.54885106 9.7237181 -0.46596728 13.10134882 1.75 17.375 C3.84408123 20.01016862 3.84408123 20.01016862 6.25 21.6875 C6.8275 22.120625 7.405 22.55375 8 23 C8 23.99 8 24.98 8 26 C6.35 26 4.7 26 3 26 C2.7525 25.46375 2.505 24.9275 2.25 24.375 C1.02712522 21.85334344 1.02712522 21.85334344 -1.125 19.4375 C-3.7516757 14.62192789 -3.71141593 10.38059404 -3 5 C-1.5 1.8125 -1.5 1.8125 0 0 Z " fill="#BC9C18" transform="translate(185,178)"/>
<path d="M0 0 C2.64 0 5.28 0 8 0 C8.53195312 2.8941856 9.05086335 5.78971515 9.5625 8.6875 C9.71396484 9.50412109 9.86542969 10.32074219 10.02148438 11.16210938 C10.75603004 15.38147633 11.28893273 18.80883464 10 23 C7.34281926 20.34281926 7.4060533 18.44208487 6.875 14.75 C6.70742187 13.63109375 6.53984375 12.5121875 6.3671875 11.359375 C6.02246476 8.20552869 5.93277562 5.16914916 6 2 C3.69 2.33 1.38 2.66 -1 3 C-0.67 2.01 -0.34 1.02 0 0 Z " fill="#C09F14" transform="translate(178,152)"/>
<path d="M0 0 C3.63 0 7.26 0 11 0 C11.53067341 2.10170656 12.04922857 4.20647598 12.5625 6.3125 C12.85253906 7.48425781 13.14257812 8.65601563 13.44140625 9.86328125 C14 13 14 13 13 16 C12.34 16 11.68 16 11 16 C10.66179834 14.4176994 10.32964061 12.83410625 10 11.25 C9.814375 10.36828125 9.62875 9.4865625 9.4375 8.578125 C9 6 9 6 9 2 C6.03 2 3.06 2 0 2 C0 1.34 0 0.68 0 0 Z " fill="#C5A10F" transform="translate(161,155)"/>
<path d="M0 0 C1.93077009 1.2183469 3.76866843 2.47676057 5.56640625 3.8828125 C4.90640625 5.2028125 4.24640625 6.5228125 3.56640625 7.8828125 C2.1015625 6.61328125 0.63671875 5.34375 -0.828125 4.07421875 C-4.24367962 1.53956143 -7.53674498 1.77639477 -11.62109375 1.8203125 C-12.70777344 1.82933594 -13.79445312 1.83835938 -14.9140625 1.84765625 C-15.74550781 1.85925781 -16.57695313 1.87085938 -17.43359375 1.8828125 C-13.07696035 -2.4738209 -5.4151211 -2.48591434 0 0 Z " fill="#BC9E19" transform="translate(144.43359375,158.1171875)"/>
<path d="M0 0 C0.33 3.96 0.66 7.92 1 12 C1.99 12.33 2.98 12.66 4 13 C4 13.66 4 14.32 4 15 C1.36 14.34 -1.28 13.68 -4 13 C-4 9.04 -4 5.08 -4 1 C-2 0 -2 0 0 0 Z " fill="#174179" transform="translate(209,153)"/>
<path d="M0 0 C0.639375 0.804375 1.27875 1.60875 1.9375 2.4375 C3.40603502 4.2750504 3.40603502 4.2750504 5 6 C5.99 5.01 6.98 4.02 8 3 C8 5.64 8 8.28 8 11 C6.68 11 5.36 11 4 11 C4 10.01 4 9.02 4 8 C3.0409375 8.2784375 3.0409375 8.2784375 2.0625 8.5625 C1.381875 8.706875 0.70125 8.85125 0 9 C-0.33 8.67 -0.66 8.34 -1 8 C-0.82364548 5.30917128 -0.38164079 2.67148554 0 0 Z " fill="#1C3E71" transform="translate(169,195)"/>
<path d="M0 0 C2.70331017 2.70331017 3.19915686 5.71542796 4.125 9.3125 C4.30675781 9.97701172 4.48851562 10.64152344 4.67578125 11.32617188 C5.63204455 14.9606914 6.21811505 18.24115057 6 22 C5.34 22.33 4.68 22.66 4 23 C3.13003414 19.92090233 2.28184148 16.83621369 1.4375 13.75 C1.19064453 12.87730469 0.94378906 12.00460938 0.68945312 11.10546875 C0.46064453 10.26113281 0.23183594 9.41679687 -0.00390625 8.546875 C-0.21861572 7.77182617 -0.4333252 6.99677734 -0.65454102 6.19824219 C-1.0298967 3.80975982 -0.74681558 2.279036 0 0 Z " fill="#C29E10" transform="translate(43,191)"/>
<path d="M0 0 C0.66 0 1.32 0 2 0 C2 5.28 2 10.56 2 16 C1.67 16 1.34 16 1 16 C0.67 13.36 0.34 10.72 0 8 C-0.66 12.29 -1.32 16.58 -2 21 C-3.32 21.33 -4.64 21.66 -6 22 C-5.34 21.67 -4.68 21.34 -4 21 C-3.60344925 18.98141483 -3.60344925 18.98141483 -3.5 16.5625 C-2.35344828 2.35344828 -2.35344828 2.35344828 0 0 Z " fill="#B49C2A" transform="translate(224,184)"/>
<path d="M0 0 C0.66 4.62 1.32 9.24 2 14 C1.01 14.66 0.02 15.32 -1 16 C-1.33 11.38 -1.66 6.76 -2 2 C-5.96 2.99 -9.92 3.98 -14 5 C-13 3 -13 3 -10.8203125 2.1484375 C-9.93085937 1.89320313 -9.04140625 1.63796875 -8.125 1.375 C-7.24070312 1.11460937 -6.35640625 0.85421875 -5.4453125 0.5859375 C-3 0 -3 0 0 0 Z " fill="#B99D1C" transform="translate(95,153)"/>
<path d="M0 0 C0.99 0 1.98 0 3 0 C4.20272819 2.40545638 4.10071472 3.94996953 4.0625 6.625 C4.05347656 7.44226563 4.04445313 8.25953125 4.03515625 9.1015625 C4.02355469 9.72804687 4.01195313 10.35453125 4 11 C2.02 11.99 2.02 11.99 0 13 C-0.19397476 11.02145742 -0.38001321 9.0421352 -0.5625 7.0625 C-0.66691406 5.96035156 -0.77132812 4.85820312 -0.87890625 3.72265625 C-0.91886719 2.82417969 -0.95882812 1.92570313 -1 1 C-0.67 0.67 -0.34 0.34 0 0 Z " fill="#1A5890" transform="translate(73,155)"/>
<path d="M0 0 C0.66 0.99 1.32 1.98 2 3 C-4.56053812 9.83318386 -4.56053812 9.83318386 -8.08984375 10.2421875 C-10 9.9375 -10 9.9375 -13 9 C-10.84545751 6.64283596 -8.80280126 5.21033856 -5.9375 3.8125 C-5.24527344 3.46832031 -4.55304688 3.12414062 -3.83984375 2.76953125 C-2 2 -2 2 0 2 C0 1.34 0 0.68 0 0 Z " fill="#EDF0F0" transform="translate(151,144)"/>
<path d="M0 0 C0.99 0 1.98 0 3 0 C3.33 1.98 3.66 3.96 4 6 C6.64 6.33 9.28 6.66 12 7 C10 9 10 9 7.3984375 9.1953125 C6.40070313 9.17210937 5.40296875 9.14890625 4.375 9.125 C2.87066406 9.09792969 2.87066406 9.09792969 1.3359375 9.0703125 C0.56507813 9.04710937 -0.20578125 9.02390625 -1 9 C-0.67 6.03 -0.34 3.06 0 0 Z " fill="#1B3262" transform="translate(205,202)"/>
<path d="M0 0 C0.33 0 0.66 0 1 0 C1.09796875 0.66386719 1.1959375 1.32773438 1.296875 2.01171875 C2.20654349 7.383468 3.02187393 11.02187393 7 15 C7.66 15.66 8.32 16.32 9 17 C6.36 17 3.72 17 1 17 C0.63601378 14.91835982 0.28416713 12.83459438 -0.0625 10.75 C-0.25972656 9.58984375 -0.45695313 8.4296875 -0.66015625 7.234375 C-0.9606216 4.37477376 -0.9439206 2.66674071 0 0 Z " fill="#EDC10E" transform="translate(181,186)"/>
<path d="M0 0 C0.2475 0.5775 0.495 1.155 0.75 1.75 C2.2567975 4.46223549 3.51243613 6.11751924 6 8 C9.6675213 8.33417929 9.6675213 8.33417929 13 8 C11.9375 9.5 11.9375 9.5 10 11 C6.06905293 11.50030235 3.8994213 11.5996142 0.5625 9.375 C-1.41041808 6.37616451 -1.39152344 4.52371092 -1 1 C-0.67 0.67 -0.34 0.34 0 0 Z " fill="#C7A10E" transform="translate(65,182)"/>
<path d="M0 0 C0.66 0 1.32 0 2 0 C3.19963643 2.43218059 4.38484438 4.86970578 5.5625 7.3125 C5.90474609 8.00279297 6.24699219 8.69308594 6.59960938 9.40429688 C9.11328125 14.66015625 9.11328125 14.66015625 8 18 C6.68085608 15.92062051 5.36961787 13.83691981 4.0625 11.75 C3.68931641 11.16347656 3.31613281 10.57695312 2.93164062 9.97265625 C-0.63616244 4.25131441 -0.63616244 4.25131441 -1 1 C-0.67 0.67 -0.34 0.34 0 0 Z " fill="#010409" transform="translate(13,183)"/>
<path d="M0 0 C4.82675589 2.41337795 7.69984002 5.86062408 11 10 C10.01 10.66 9.02 11.32 8 12 C7.61328125 11.52949219 7.2265625 11.05898437 6.828125 10.57421875 C4.10469664 7.3182388 1.58718126 4.34546467 -2 2 C-1.34 1.34 -0.68 0.68 0 0 Z " fill="#BC9E18" transform="translate(106,153)"/>
<path d="M0 0 C0.33 0 0.66 0 1 0 C1.33 2.31 1.66 4.62 2 7 C2.60328125 6.84402344 3.2065625 6.68804687 3.828125 6.52734375 C4.62734375 6.33269531 5.4265625 6.13804687 6.25 5.9375 C7.03890625 5.74027344 7.8278125 5.54304687 8.640625 5.33984375 C11.10394822 4.98502733 12.65604132 5.23122456 15 6 C12.94077598 8.05922402 8.78291876 7.41427579 5.9375 7.5625 C4.79958008 7.62727539 4.79958008 7.62727539 3.63867188 7.69335938 C1.75934562 7.79973633 -0.12030244 7.90039934 -2 8 C-2.125 5.125 -2.125 5.125 -2 2 C-1.34 1.34 -0.68 0.68 0 0 Z " fill="#204A7E" transform="translate(83,203)"/>
<path d="M0 0 C0.33 0 0.66 0 1 0 C1.185625 1.11375 1.37125 2.2275 1.5625 3.375 C2.036875 4.57125 2.51125 5.7675 3 7 C6.51400668 8.54086322 6.51400668 8.54086322 10 9 C10 9.66 10 10.32 10 11 C2.67784643 11.36010591 2.67784643 11.36010591 0 9.9375 C-1.54340102 6.94716052 -1.2441554 4.29609795 -1 1 C-0.67 0.67 -0.34 0.34 0 0 Z " fill="#BF9D14" transform="translate(195,178)"/>
<path d="M0 0 C0.33 0.99 0.66 1.98 1 3 C3.31 3.33 5.62 3.66 8 4 C7.67 4.99 7.34 5.98 7 7 C3.7 6.67 0.4 6.34 -3 6 C-3 5.01 -3 4.02 -3 3 C-2.34 3 -1.68 3 -1 3 C-0.67 2.01 -0.34 1.02 0 0 Z " fill="#334875" transform="translate(177,203)"/>
<path d="M0 0 C3.96 0.33 7.92 0.66 12 1 C11.67 2.98 11.34 4.96 11 7 C10.34 6.01 9.68 5.02 9 4 C6.81494871 3.20562077 6.81494871 3.20562077 4.375 2.8125 C3.14910156 2.57466797 3.14910156 2.57466797 1.8984375 2.33203125 C1.27195313 2.22246094 0.64546875 2.11289063 0 2 C0 1.34 0 0.68 0 0 Z " fill="#C19F13" transform="translate(238,164)"/>
<path d="M0 0 C2.475 0.495 2.475 0.495 5 1 C5 2.98 5 4.96 5 7 C4.01 7.33 3.02 7.66 2 8 C0.74335022 5.09399739 0 3.20395416 0 0 Z " fill="#ABB3B4" transform="translate(41,171)"/>
<path d="M0 0 C0.25 6.625 0.25 6.625 -2 10 C-4 8 -4 8 -4.3125 5 C-4.209375 4.01 -4.10625 3.02 -4 2 C-1 0 -1 0 0 0 Z " fill="#134377" transform="translate(156,151)"/>
<path d="M0 0 C-0.33 2.64 -0.66 5.28 -1 8 C-1.99 8.33 -2.98 8.66 -4 9 C-4 6.36 -4 3.72 -4 1 C-1 0 -1 0 0 0 Z " fill="#213262" transform="translate(150,189)"/>
<path d="M0 0 C3.79588866 0.54226981 5.47211993 2.20127563 8 5 C7.67 5.99 7.34 6.98 7 8 C4.36 6.02 1.72 4.04 -1 2 C-0.67 1.34 -0.34 0.68 0 0 Z " fill="#C19F11" transform="translate(145,174)"/>
<path d="M0 0 C0.66 0.33 1.32 0.66 2 1 C-1.96 5.29 -5.92 9.58 -10 14 C-10 9.84439769 -7.7179548 8.15900671 -5 5.3125 C-4.52304688 4.80138672 -4.04609375 4.29027344 -3.5546875 3.76367188 C-2.37640085 2.50290516 -1.18904747 1.25062314 0 0 Z " fill="#0F4A80" transform="translate(138,132)"/>
<path d="M0 0 C0.66 0 1.32 0 2 0 C2.2475 0.78375 2.495 1.5675 2.75 2.375 C4.15389099 5.32317108 5.00675737 5.9024777 8 7 C8 7.66 8 8.32 8 9 C5.36 8.34 2.72 7.68 0 7 C0 4.69 0 2.38 0 0 Z " fill="#18538F" transform="translate(205,159)"/>
<path d="M0 0 C-1.35304209 2.70608417 -2.80966544 2.96183047 -5.5625 4.125 C-6.38878906 4.47820312 -7.21507812 4.83140625 -8.06640625 5.1953125 C-8.70449219 5.46085938 -9.34257813 5.72640625 -10 6 C-9.6875 4.125 -9.6875 4.125 -9 2 C-5.5647952 -0.29013653 -4.014669 -0.17842973 0 0 Z " fill="#396AA9" transform="translate(137,164)"/>
<path d="M0 0 C6.0546875 -0.1953125 6.0546875 -0.1953125 8 0 C8.66 0.66 9.32 1.32 10 2 C9 3 9 3 5.5625 3.125 C2 3 2 3 0 2 C0 1.34 0 0.68 0 0 Z " fill="#254577" transform="translate(156,199)"/>
<path d="M0 0 C0.66 0 1.32 0 2 0 C4.12508244 3.18762365 4.5020163 5.26512223 5 9 C4.01 9.33 3.02 9.66 2 10 C1.34 6.7 0.68 3.4 0 0 Z " fill="#C5A110" transform="translate(229,176)"/>
<path d="M0 0 C0.99 0 1.98 0 3 0 C3 1.98 3 3.96 3 6 C1.02 6.99 1.02 6.99 -1 8 C-0.67 5.36 -0.34 2.72 0 0 Z " fill="#322570" transform="translate(205,202)"/>
<path d="M0 0 C3.41158256 1.13719419 4.11854601 2.04342944 6 5 C6 5.66 6 6.32 6 7 C4.1875 6.8125 4.1875 6.8125 2 6 C0.25 3.4375 0.25 3.4375 -1 1 C-0.67 0.67 -0.34 0.34 0 0 Z " fill="#BA9D18" transform="translate(140,138)"/>
<path d="M0 0 C1.65 0 3.3 0 5 0 C3.7260411 2.03833424 2.38938077 4.03852126 1 6 C0.34 6 -0.32 6 -1 6 C-0.67 4.02 -0.34 2.04 0 0 Z " fill="#080E17" transform="translate(130,168)"/>
<path d="M0 0 C2.64 0 5.28 0 8 0 C8 0.99 8 1.98 8 3 C5.03 3 2.06 3 -1 3 C-0.67 2.01 -0.34 1.02 0 0 Z " fill="#AC982A" transform="translate(178,152)"/>
<path d="M0 0 C-0.99 1.485 -0.99 1.485 -2 3 C-5.625 3.1875 -5.625 3.1875 -9 3 C-6.40821726 0.40821726 -3.54324677 -1.77162338 0 0 Z " fill="#D0D0D0" transform="translate(150,236)"/>
<path d="M0 0 C0.33 0 0.66 0 1 0 C1.28875 1.093125 1.5775 2.18625 1.875 3.3125 C2.81893204 7.04013845 2.81893204 7.04013845 5 10 C3.0625 9.625 3.0625 9.625 1 9 C-0.4783226 6.04335481 -0.06032783 3.25770263 0 0 Z " fill="#C8A410" transform="translate(125,169)"/>
<path d="M0 0 C-0.33 0.99 -0.66 1.98 -1 3 C-2.9375 2.625 -2.9375 2.625 -5 2 C-5.33 1.34 -5.66 0.68 -6 0 C-3.50907189 -1.24546405 -2.58919267 -0.7767578 0 0 Z " fill="#1D3B6E" transform="translate(126,153)"/>
</svg>
