<svg xmlns="http://www.w3.org/2000/svg" width="225" height="225" viewBox="0 0 225 225" version="1.1"><path d="M 100.455 16.065 C 91.897 17.086, 79.215 21.449, 71.353 26.077 C 63.878 30.477, 50.477 43.878, 46.077 51.353 C 27.057 83.666, 35.025 126.421, 64.185 148.519 C 107.316 181.204, 168.655 159.892, 181.984 107.590 C 184.420 98.030, 184.632 83.651, 182.485 73.500 C 180.677 64.951, 174.843 52.613, 168.685 44.310 C 153.824 24.277, 126.485 12.960, 100.455 16.065 M 99.064 61.665 C 96.432 62.629, 92.316 65.571, 88.946 68.895 C 83.784 73.988, 81.774 77.546, 79.421 85.750 C 79.153 86.684, 74.969 87, 62.885 87 L 46.707 87 47.345 94.548 C 50.612 133.204, 87.240 159.754, 125 150.835 C 127.475 150.250, 133.290 147.973, 137.923 145.774 C 144.580 142.614, 147.939 140.174, 153.943 134.138 C 165.389 122.631, 170.869 110.764, 172.592 93.750 L 173.276 87 156.638 87 C 140.057 87, 140 86.992, 139.978 84.750 C 139.913 78.127, 131.751 67.440, 123.563 63.259 C 117.091 59.953, 105.746 59.215, 99.064 61.665 M 103.007 73.593 C 95.622 76.796, 91.714 82.646, 91.714 90.500 C 91.714 104.261, 105.006 112.814, 117.541 107.120 C 125.356 103.571, 128.813 96.905, 127.747 87.444 C 126.479 76.200, 113.611 68.995, 103.007 73.593 M 146.244 119.457 C 141.064 126.805, 130.254 133.657, 119.365 136.493 C 116.248 137.305, 113.515 138.152, 113.292 138.375 C 113.069 138.598, 113.280 140.293, 113.761 142.140 C 114.532 145.101, 114.984 145.464, 117.568 145.195 C 125.962 144.321, 140.729 137.380, 147.379 131.183 C 150.992 127.815, 156 121.067, 156 119.566 C 156 118.616, 151.081 115, 149.788 115 C 149.566 115, 147.971 117.006, 146.244 119.457 M 154.631 155.956 C 151.403 158.101, 147.442 160.403, 145.829 161.071 C 143.824 161.901, 143.082 162.773, 143.486 163.824 C 144.638 166.826, 170.326 207.520, 171.848 208.755 C 173.786 210.326, 175.950 209.647, 182.642 205.366 C 190.327 200.450, 190.806 199.037, 186.932 192.706 C 172.531 169.170, 161.639 152.005, 161.121 152.028 C 160.779 152.044, 157.859 153.811, 154.631 155.956" stroke="none" fill="#234364" fill-rule="evenodd"/><path d="M -0 112.504 L -0 225.009 112.750 224.754 L 225.500 224.500 225.754 112.250 L 226.009 0 113.004 0 L 0 0 -0 112.504 M 0.483 113 C 0.483 174.875, 0.603 200.188, 0.750 169.250 C 0.897 138.313, 0.897 87.688, 0.750 56.750 C 0.603 25.813, 0.483 51.125, 0.483 113 M 100.455 16.065 C 91.897 17.086, 79.215 21.449, 71.353 26.077 C 63.878 30.477, 50.477 43.878, 46.077 51.353 C 27.057 83.666, 35.025 126.421, 64.185 148.519 C 107.316 181.204, 168.655 159.892, 181.984 107.590 C 184.420 98.030, 184.632 83.651, 182.485 73.500 C 180.677 64.951, 174.843 52.613, 168.685 44.310 C 153.824 24.277, 126.485 12.960, 100.455 16.065 M 99.064 61.665 C 96.432 62.629, 92.316 65.571, 88.946 68.895 C 83.784 73.988, 81.774 77.546, 79.421 85.750 C 79.153 86.684, 74.969 87, 62.885 87 L 46.707 87 47.345 94.548 C 50.612 133.204, 87.240 159.754, 125 150.835 C 127.475 150.250, 133.290 147.973, 137.923 145.774 C 144.580 142.614, 147.939 140.174, 153.943 134.138 C 165.389 122.631, 170.869 110.764, 172.592 93.750 L 173.276 87 156.638 87 C 140.057 87, 140 86.992, 139.978 84.750 C 139.913 78.127, 131.751 67.440, 123.563 63.259 C 117.091 59.953, 105.746 59.215, 99.064 61.665 M 103.007 73.593 C 95.622 76.796, 91.714 82.646, 91.714 90.500 C 91.714 104.261, 105.006 112.814, 117.541 107.120 C 125.356 103.571, 128.813 96.905, 127.747 87.444 C 126.479 76.200, 113.611 68.995, 103.007 73.593 M 146.244 119.457 C 141.064 126.805, 130.254 133.657, 119.365 136.493 C 116.248 137.305, 113.515 138.152, 113.292 138.375 C 113.069 138.598, 113.280 140.293, 113.761 142.140 C 114.532 145.101, 114.984 145.464, 117.568 145.195 C 125.962 144.321, 140.729 137.380, 147.379 131.183 C 150.992 127.815, 156 121.067, 156 119.566 C 156 118.616, 151.081 115, 149.788 115 C 149.566 115, 147.971 117.006, 146.244 119.457 M 154.631 155.956 C 151.403 158.101, 147.442 160.403, 145.829 161.071 C 143.824 161.901, 143.082 162.773, 143.486 163.824 C 144.638 166.826, 170.326 207.520, 171.848 208.755 C 173.786 210.326, 175.950 209.647, 182.642 205.366 C 190.327 200.450, 190.806 199.037, 186.932 192.706 C 172.531 169.170, 161.639 152.005, 161.121 152.028 C 160.779 152.044, 157.859 153.811, 154.631 155.956" stroke="none" fill="#fbfbfb" fill-rule="evenodd"/></svg>